<?xml version="1.0" encoding="utf-8"?>
<!-- Generator: Adobe Illustrator 26.5.0, SVG Export Plug-In . SVG Version: 6.00 Build 0)  -->
<svg version="1.1" id="icons" xmlns="http://www.w3.org/2000/svg" xmlns:xlink="http://www.w3.org/1999/xlink" x="0px" y="0px"
	 viewBox="0 0 300 300" enable-background="new 0 0 300 300" xml:space="preserve">
<path fill="#CCCCCC" stroke="#999999" stroke-miterlimit="10" d="M22.39,49.09c11.15-15.95,32.92-14.4,38.01-14.03
	c15.15,1.08,25.66,8.82,29.82,12.28c3.35-5.23,11.01-15.34,23.97-19.3c20.28-6.19,45.47,5.16,60.22,29.24
	c3.99-3.56,14.07-11.48,25.73-9.94c22.06,2.92,39.71,38.39,26.31,57.89c-7.15,10.41-22.13,14.8-37.42,12.86
	c-1.41,16.67-15.28,29.58-31.57,29.82c-15.57,0.23-29.38-11.17-32.16-26.9c0.21,3.11,1.3,22.62-10.52,31.57
	c-13.85,10.49-43.05,4.7-61.98-22.22c-11.18,10.84-28.34,9.43-36.25,0c-8.34-9.95-5.97-28.34,8.19-36.84
	C14.71,79.21,13.86,61.29,22.39,49.09z"/>
<g>
	
		<radialGradient id="SVGID_1_" cx="118.896" cy="140.0986" r="61.3265" gradientTransform="matrix(-0.1638 0.9865 -0.9865 -0.1638 292.4731 6.3154)" gradientUnits="userSpaceOnUse">
		<stop  offset="0" style="stop-color:#FFFFFF"/>
		<stop  offset="0.1164" style="stop-color:#F9F9F4"/>
		<stop  offset="1" style="stop-color:#CBCCA0"/>
	</radialGradient>
	<path fill="url(#SVGID_1_)" d="M125.81,158.84c-35.07-5.82-58.77-38.96-52.95-74.02c3.64-21.94,17.97-39.43,36.79-48.03
		c-8.26,8.44-14.12,19.4-16.2,31.93c-5.39,32.48,16.57,63.19,49.05,68.58c20.7,3.44,40.7-4.25,53.86-18.68
		C185.59,146.49,156.43,163.93,125.81,158.84z"/>
	
		<radialGradient id="SVGID_00000108998942677041843610000010721859925378036125_" cx="143.0825" cy="58.6091" r="11.7757" gradientUnits="userSpaceOnUse">
		<stop  offset="0" style="stop-color:#FFFFFF"/>
		<stop  offset="0.1164" style="stop-color:#F9F9F4"/>
		<stop  offset="1" style="stop-color:#CBCCA0"/>
	</radialGradient>
	<polygon fill="url(#SVGID_00000108998942677041843610000010721859925378036125_)" points="155,62.56 145.9,61.82 142.37,70.24 
		140.27,61.36 131.17,60.61 138.97,55.86 136.87,46.97 143.79,52.93 151.6,48.18 148.07,56.61 	"/>
	
		<radialGradient id="SVGID_00000051341338449607115290000001312456000007275951_" cx="53.5712" cy="98.3365" r="10.0634" gradientUnits="userSpaceOnUse">
		<stop  offset="0" style="stop-color:#FFFFFF"/>
		<stop  offset="0.1164" style="stop-color:#F9F9F4"/>
		<stop  offset="1" style="stop-color:#CBCCA0"/>
	</radialGradient>
	<polygon fill="url(#SVGID_00000051341338449607115290000001312456000007275951_)" points="63.75,101.72 55.97,101.08 52.96,108.28 
		51.17,100.68 43.39,100.04 50.06,95.99 48.26,88.39 54.18,93.48 60.85,89.43 57.84,96.63 	"/>
	
		<radialGradient id="SVGID_00000043418117672066254840000013722610182225128338_" cx="134.1697" cy="116.3331" r="8.8084" gradientUnits="userSpaceOnUse">
		<stop  offset="0" style="stop-color:#FFFFFF"/>
		<stop  offset="0.1164" style="stop-color:#F9F9F4"/>
		<stop  offset="1" style="stop-color:#CBCCA0"/>
	</radialGradient>
	<polygon fill="url(#SVGID_00000043418117672066254840000013722610182225128338_)" points="143.08,119.29 136.27,118.73 
		133.64,125.04 132.07,118.39 125.26,117.83 131.09,114.28 129.52,107.63 134.7,112.08 140.54,108.53 137.9,114.84 	"/>
</g>
<path fill="#CCCCCC" stroke="#999999" stroke-miterlimit="10" d="M21.3,103.15c9.95-14.24,29.39-12.86,33.94-12.53
	c13.53,0.96,22.91,7.88,26.63,10.96c2.99-4.67,9.83-13.7,21.41-17.23c18.11-5.52,40.6,4.6,53.78,26.11
	c3.57-3.18,12.56-10.25,22.97-8.88c19.69,2.61,35.46,34.28,23.5,51.69c-6.38,9.29-19.76,13.22-33.42,11.49
	c-1.26,14.89-13.65,26.41-28.19,26.63c-13.9,0.21-26.23-9.97-28.72-24.02c0.19,2.78,1.16,20.2-9.4,28.19
	c-12.37,9.37-38.44,4.2-55.35-19.84c-9.98,9.68-25.31,8.42-32.37,0c-7.45-8.89-5.33-25.31,7.31-32.89
	C14.45,130.04,13.69,114.04,21.3,103.15z"/>
<g>
	<polygon fill="#E6E6E6" points="50.54,202.34 45.71,204.9 45.35,210.36 40.33,208.18 35.84,211.3 34.41,206.02 29.18,204.45 
		32.42,200.04 30.38,194.97 35.84,194.76 38.54,190 42.11,194.14 47.51,193.28 46.5,198.66 	"/>
	<polygon fill="#E6E6E6" points="67.07,217.95 62.23,220.51 61.87,225.97 56.86,223.79 52.36,226.9 50.94,221.62 45.7,220.05 
		48.94,215.65 46.9,210.58 52.37,210.36 55.06,205.61 58.64,209.75 64.04,208.89 63.03,214.26 	"/>
	<polygon fill="#E6E6E6" points="150,210.81 145.17,213.37 144.8,218.83 139.79,216.65 135.3,219.77 133.87,214.49 128.64,212.92 
		131.88,208.51 129.84,203.44 135.3,203.23 138,198.47 141.57,202.61 146.97,201.75 145.96,207.12 	"/>
	<polygon fill="#E6E6E6" points="171.36,210.81 166.53,213.37 166.17,218.83 161.15,216.65 156.66,219.77 155.24,214.49 150,212.92 
		153.24,208.51 151.2,203.44 156.67,203.23 159.36,198.47 162.93,202.61 168.33,201.75 167.33,207.12 	"/>
	<polygon fill="#E6E6E6" points="249.46,205.2 254.29,207.76 254.65,213.22 259.67,211.04 264.16,214.16 265.59,208.88 
		270.82,207.31 267.58,202.9 269.62,197.83 264.16,197.61 261.46,192.86 257.89,197 252.49,196.14 253.5,201.51 	"/>
	<polygon fill="#E6E6E6" points="232.93,220.8 237.77,223.37 238.13,228.82 243.14,226.64 247.64,229.76 249.06,224.48 
		254.3,222.91 251.06,218.51 253.1,213.43 247.63,213.22 244.94,208.46 241.36,212.6 235.96,211.74 236.97,217.12 	"/>
</g>
<polygon fill="#E6E6E6" points="88.37,222.22 93.2,224.78 93.56,230.24 98.58,228.06 103.07,231.18 104.49,225.9 109.73,224.33 
	106.49,219.92 108.53,214.85 103.07,214.64 100.37,209.88 96.8,214.02 91.4,213.16 92.41,218.54 "/>
<polygon fill="#E6E6E6" points="71.84,237.83 76.67,240.39 77.04,245.85 82.05,243.67 86.55,246.78 87.97,241.5 93.21,239.94 
	89.97,235.53 92.01,230.46 86.54,230.24 83.85,225.49 80.27,229.63 74.87,228.77 75.88,234.14 "/>
<polygon fill="#E6E6E6" points="230.51,249.27 235.35,251.84 235.71,257.29 240.72,255.11 245.22,258.23 246.64,252.95 
	251.88,251.38 248.64,246.98 250.68,241.9 245.21,241.69 242.52,236.93 238.94,241.07 233.54,240.21 234.55,245.59 "/>
<polygon fill="#E6E6E6" points="213.99,264.88 218.82,267.44 219.18,272.9 224.2,270.72 228.69,273.84 230.12,268.56 235.35,266.99 
	232.11,262.58 234.15,257.51 228.69,257.3 225.99,252.54 222.42,256.68 217.02,255.82 218.03,261.19 "/>
<polygon fill="#E6E6E6" points="213.99,196.75 218.82,199.31 219.18,204.77 224.2,202.59 228.69,205.7 230.12,200.42 235.35,198.85 
	232.11,194.45 234.15,189.38 228.69,189.16 225.99,184.41 222.42,188.54 217.02,187.69 218.03,193.06 "/>
<polygon fill="#E6E6E6" points="110.16,267.83 114.99,270.39 115.36,275.85 120.37,273.67 124.87,276.78 126.29,271.5 
	131.53,269.94 128.29,265.53 130.33,260.46 124.86,260.24 122.17,255.49 118.59,259.63 113.19,258.77 114.2,264.14 "/>
<polygon fill="#E6E6E6" points="93.64,283.43 98.47,286 98.83,291.45 103.85,289.27 108.34,292.39 109.77,287.11 115,285.54 
	111.76,281.14 113.8,276.06 108.34,275.85 105.64,271.09 102.07,275.23 96.67,274.37 97.68,279.75 "/>
<polygon fill="#E6E6E6" points="158.37,275.53 163.2,278.09 163.57,283.55 168.58,281.37 173.07,284.48 174.5,279.2 179.73,277.64 
	176.49,273.23 178.53,268.16 173.07,267.94 170.37,263.19 166.8,267.33 161.4,266.47 162.41,271.84 "/>
<polygon fill="#E6E6E6" points="47.37,249.38 52.2,251.94 52.56,257.39 57.58,255.22 62.07,258.33 63.49,253.05 68.73,251.48 
	65.49,247.08 67.53,242 62.07,241.79 59.37,237.03 55.8,241.17 50.4,240.31 51.41,245.69 "/>
<polygon fill="#E6E6E6" points="30.84,264.98 35.67,267.54 36.04,273 41.05,270.82 45.55,273.94 46.97,268.66 52.21,267.09 
	48.97,262.68 51.01,257.61 45.54,257.4 42.85,252.64 39.27,256.78 33.87,255.92 34.88,261.3 "/>
<path fill="#CCCCCC" stroke="#999999" stroke-miterlimit="10" d="M121.35,99.94c9.17-13.12,27.09-11.85,31.27-11.55
	c12.47,0.89,21.11,7.26,24.54,10.1c2.76-4.31,9.06-12.62,19.73-15.88c16.69-5.09,37.41,4.24,49.56,24.06
	c3.29-2.93,11.58-9.45,21.17-8.18c18.15,2.4,32.67,31.59,21.65,47.63c-5.88,8.56-18.21,12.18-30.79,10.59
	c-1.16,13.72-12.58,24.34-25.98,24.54c-12.81,0.19-24.18-9.19-26.46-22.13c0.18,2.56,1.07,18.61-8.66,25.98
	c-11.4,8.63-35.42,3.87-51-18.28c-9.2,8.92-23.32,7.76-29.83,0c-6.87-8.19-4.91-23.32,6.74-30.31
	C115.04,124.72,114.34,109.98,121.35,99.94z"/>
<path fill="none" stroke="#CCCCCC" stroke-width="3" stroke-miterlimit="10" d="M126.32,221.55c25.83,0,50.69,1.43,76.51,1.43
	c7.64,0,9.22-8.24,7.6-13.78c-3.33-11.41-20.67-17.35-28.99-12.36c-3.46,2.08-4.52,8.48-1.9,12.36c2.41,3.56,11.2,4.27,16.57,2.14"
	/>
<path fill="none" stroke="#CCCCCC" stroke-width="3" stroke-miterlimit="10" d="M145.81,235.51c25.83,0,50.69,1.43,76.51,1.43
	c7.64,0,9.22-8.24,7.6-13.78c-3.33-11.41-20.67-17.35-28.99-12.36c-3.46,2.08-4.52,8.48-1.9,12.36c2.41,3.56,11.2,4.27,16.57,2.14"
	/>
<path fill="none" stroke="#CCCCCC" stroke-width="3" stroke-miterlimit="10" d="M129.16,249.47c25.83,0,50.69,1.43,76.51,1.43
	c7.64,0,9.22-8.24,7.6-13.78c-3.33-11.41-20.67-17.35-28.99-12.36c-3.46,2.08-4.52,8.48-1.9,12.36c2.41,3.56,11.2,4.27,16.57,2.14"
	/>
</svg>
