<?xml version="1.0" encoding="utf-8"?>
<!-- Generator: Adobe Illustrator 26.5.0, SVG Export Plug-In . SVG Version: 6.00 Build 0)  -->
<svg version="1.1" id="icons" xmlns="http://www.w3.org/2000/svg" xmlns:xlink="http://www.w3.org/1999/xlink" x="0px" y="0px"
	 viewBox="0 0 300 300" enable-background="new 0 0 300 300" xml:space="preserve">
<path fill="#CCCCCC" stroke="#999999" stroke-miterlimit="10" d="M22.39,49.09c11.15-15.95,32.92-14.4,38.01-14.03
	c15.15,1.08,25.66,8.82,29.82,12.28c3.35-5.23,11.01-15.34,23.97-19.3c20.28-6.19,45.47,5.16,60.22,29.24
	c3.99-3.56,14.07-11.48,25.73-9.94c22.06,2.92,39.71,38.39,26.31,57.89c-7.15,10.41-22.13,14.8-37.42,12.86
	c-1.41,16.67-15.28,29.58-31.57,29.82c-15.57,0.23-29.38-11.17-32.16-26.9c0.21,3.11,1.3,22.62-10.52,31.57
	c-13.85,10.49-43.05,4.7-61.98-22.22c-11.18,10.84-28.34,9.43-36.25,0c-8.34-9.95-5.97-28.34,8.19-36.84
	C14.71,79.21,13.86,61.29,22.39,49.09z"/>
<g>
	
		<radialGradient id="SVGID_1_" cx="118.896" cy="140.0986" r="61.3265" gradientTransform="matrix(-0.1638 0.9865 -0.9865 -0.1638 292.4731 6.3154)" gradientUnits="userSpaceOnUse">
		<stop  offset="0" style="stop-color:#FFFFFF"/>
		<stop  offset="0.1164" style="stop-color:#F9F9F4"/>
		<stop  offset="1" style="stop-color:#CBCCA0"/>
	</radialGradient>
	<path fill="url(#SVGID_1_)" d="M125.81,158.84c-35.07-5.82-58.77-38.96-52.95-74.02c3.64-21.94,17.97-39.43,36.79-48.03
		c-8.26,8.44-14.12,19.4-16.2,31.93c-5.39,32.48,16.57,63.19,49.05,68.58c20.7,3.44,40.7-4.25,53.86-18.68
		C185.59,146.49,156.43,163.93,125.81,158.84z"/>
	
		<radialGradient id="SVGID_00000060011067603490351030000011812965226683093888_" cx="143.0825" cy="58.6091" r="11.7757" gradientUnits="userSpaceOnUse">
		<stop  offset="0" style="stop-color:#FFFFFF"/>
		<stop  offset="0.1164" style="stop-color:#F9F9F4"/>
		<stop  offset="1" style="stop-color:#CBCCA0"/>
	</radialGradient>
	<polygon fill="url(#SVGID_00000060011067603490351030000011812965226683093888_)" points="155,62.56 145.9,61.82 142.37,70.24 
		140.27,61.36 131.17,60.61 138.97,55.86 136.87,46.97 143.79,52.93 151.6,48.18 148.07,56.61 	"/>
	
		<radialGradient id="SVGID_00000105425737376431279410000005943264484082205349_" cx="53.5712" cy="98.3365" r="10.0634" gradientUnits="userSpaceOnUse">
		<stop  offset="0" style="stop-color:#FFFFFF"/>
		<stop  offset="0.1164" style="stop-color:#F9F9F4"/>
		<stop  offset="1" style="stop-color:#CBCCA0"/>
	</radialGradient>
	<polygon fill="url(#SVGID_00000105425737376431279410000005943264484082205349_)" points="63.75,101.72 55.97,101.08 52.96,108.28 
		51.17,100.68 43.39,100.04 50.06,95.99 48.26,88.39 54.18,93.48 60.85,89.43 57.84,96.63 	"/>
	
		<radialGradient id="SVGID_00000108289916154605160230000006218469074018580360_" cx="134.1697" cy="116.3331" r="8.8084" gradientUnits="userSpaceOnUse">
		<stop  offset="0" style="stop-color:#FFFFFF"/>
		<stop  offset="0.1164" style="stop-color:#F9F9F4"/>
		<stop  offset="1" style="stop-color:#CBCCA0"/>
	</radialGradient>
	<polygon fill="url(#SVGID_00000108289916154605160230000006218469074018580360_)" points="143.08,119.29 136.27,118.73 
		133.64,125.04 132.07,118.39 125.26,117.83 131.09,114.28 129.52,107.63 134.7,112.08 140.54,108.53 137.9,114.84 	"/>
</g>
<path fill="#CCCCCC" stroke="#999999" stroke-miterlimit="10" d="M21.3,103.15c9.95-14.24,29.39-12.86,33.94-12.53
	c13.53,0.96,22.91,7.88,26.63,10.96c2.99-4.67,9.83-13.7,21.41-17.23c18.11-5.52,40.6,4.6,53.78,26.11
	c3.57-3.18,12.56-10.25,22.97-8.88c19.69,2.61,35.46,34.28,23.5,51.69c-6.38,9.29-19.76,13.22-33.42,11.49
	c-1.26,14.89-13.65,26.41-28.19,26.63c-13.9,0.21-26.23-9.97-28.72-24.02c0.19,2.78,1.16,20.2-9.4,28.19
	c-12.37,9.37-38.44,4.2-55.35-19.84c-9.98,9.68-25.31,8.42-32.37,0c-7.45-8.89-5.33-25.31,7.31-32.89
	C14.45,130.04,13.69,114.04,21.3,103.15z"/>
<polygon fill="#E6E6E6" points="88.37,222.22 93.2,224.78 93.56,230.24 98.58,228.06 103.07,231.18 104.49,225.9 109.73,224.33 
	106.49,219.92 108.53,214.85 103.07,214.64 100.37,209.88 96.8,214.02 91.4,213.16 92.41,218.54 "/>
<polygon fill="#E6E6E6" points="71.84,237.83 76.67,240.39 77.04,245.85 82.05,243.67 86.55,246.78 87.97,241.5 93.21,239.94 
	89.97,235.53 92.01,230.46 86.54,230.24 83.85,225.49 80.27,229.63 74.87,228.77 75.88,234.14 "/>
<path fill="#CCCCCC" stroke="#999999" stroke-miterlimit="10" d="M121.35,99.94c9.17-13.12,27.09-11.85,31.27-11.55
	c12.47,0.89,21.11,7.26,24.54,10.1c2.76-4.31,9.06-12.62,19.73-15.88c16.69-5.09,37.41,4.24,49.56,24.06
	c3.29-2.93,11.58-9.45,21.17-8.18c18.15,2.4,32.67,31.59,21.65,47.63c-5.88,8.56-18.21,12.18-30.79,10.59
	c-1.16,13.72-12.58,24.34-25.98,24.54c-12.81,0.19-24.18-9.19-26.46-22.13c0.18,2.56,1.07,18.61-8.66,25.98
	c-11.4,8.63-35.42,3.87-51-18.28c-9.2,8.92-23.32,7.76-29.83,0c-6.87-8.19-4.91-23.32,6.74-30.31
	C115.04,124.72,114.34,109.98,121.35,99.94z"/>
<path fill="none" stroke="#CCCCCC" stroke-width="3" stroke-miterlimit="10" d="M126.32,221.55c25.83,0,50.69,1.43,76.51,1.43
	c7.64,0,9.22-8.24,7.6-13.78c-3.33-11.41-20.67-17.35-28.99-12.36c-3.46,2.08-4.52,8.48-1.9,12.36c2.41,3.56,11.2,4.27,16.57,2.14"
	/>
<path fill="none" stroke="#CCCCCC" stroke-width="3" stroke-miterlimit="10" d="M145.81,235.51c25.83,0,50.69,1.43,76.51,1.43
	c7.64,0,9.22-8.24,7.6-13.78c-3.33-11.41-20.67-17.35-28.99-12.36c-3.46,2.08-4.52,8.48-1.9,12.36c2.41,3.56,11.2,4.27,16.57,2.14"
	/>
<path fill="none" stroke="#CCCCCC" stroke-width="3" stroke-miterlimit="10" d="M129.16,249.47c25.83,0,50.69,1.43,76.51,1.43
	c7.64,0,9.22-8.24,7.6-13.78c-3.33-11.41-20.67-17.35-28.99-12.36c-3.46,2.08-4.52,8.48-1.9,12.36c2.41,3.56,11.2,4.27,16.57,2.14"
	/>
</svg>
