<?xml version="1.0" encoding="utf-8"?>
<!-- Generator: Adobe Illustrator 26.5.0, SVG Export Plug-In . SVG Version: 6.00 Build 0)  -->
<svg version="1.1" xmlns="http://www.w3.org/2000/svg" xmlns:xlink="http://www.w3.org/1999/xlink" x="0px" y="0px"
	 viewBox="0 0 300 300" enable-background="new 0 0 300 300" xml:space="preserve">
<g id="bright_sun">
</g>
<g id="sun">
</g>
<g id="Moon">
	<g>
		
			<radialGradient id="SVGID_1_" cx="155.1592" cy="120.4992" r="88.2668" gradientTransform="matrix(-0.1638 0.9865 -0.9865 -0.1638 292.4731 6.3154)" gradientUnits="userSpaceOnUse">
			<stop  offset="0" style="stop-color:#FFFFFF"/>
			<stop  offset="0.1164" style="stop-color:#F9F9F4"/>
			<stop  offset="1" style="stop-color:#CBCCA0"/>
		</radialGradient>
		<path fill="url(#SVGID_1_)" d="M135.26,223.39c-50.48-8.38-84.59-56.08-76.21-106.54C64.3,85.28,84.92,60.1,112,47.73
			c-11.9,12.14-20.33,27.92-23.32,45.96c-7.76,46.75,23.85,90.95,70.59,98.71c29.8,4.95,58.58-6.11,77.53-26.89
			C221.31,205.61,179.33,230.71,135.26,223.39z"/>
		
			<radialGradient id="SVGID_00000168082999494643216070000018428586814341292209_" cx="160.1195" cy="79.1246" r="16.9487" gradientUnits="userSpaceOnUse">
			<stop  offset="0" style="stop-color:#FFFFFF"/>
			<stop  offset="0.1164" style="stop-color:#F9F9F4"/>
			<stop  offset="1" style="stop-color:#CBCCA0"/>
		</radialGradient>
		<polygon fill="url(#SVGID_00000168082999494643216070000018428586814341292209_)" points="177.27,84.82 164.17,83.74 159.1,95.87 
			156.07,83.08 142.97,82 154.2,75.17 151.18,62.38 161.14,70.95 172.37,64.12 167.3,76.25 		"/>
		
			<radialGradient id="SVGID_00000108989078913891844700000002028705282592030884_" cx="31.2864" cy="136.304" r="14.4842" gradientUnits="userSpaceOnUse">
			<stop  offset="0" style="stop-color:#FFFFFF"/>
			<stop  offset="0.1164" style="stop-color:#F9F9F4"/>
			<stop  offset="1" style="stop-color:#CBCCA0"/>
		</radialGradient>
		<polygon fill="url(#SVGID_00000108989078913891844700000002028705282592030884_)" points="45.94,141.17 34.75,140.25 
			30.41,150.61 27.83,139.68 16.63,138.76 26.23,132.93 23.64,121.99 32.16,129.32 41.76,123.48 37.42,133.85 		"/>
		
			<radialGradient id="SVGID_00000007396928451217881540000010710943421865957275_" cx="147.2913" cy="162.2064" r="12.6779" gradientUnits="userSpaceOnUse">
			<stop  offset="0" style="stop-color:#FFFFFF"/>
			<stop  offset="0.1164" style="stop-color:#F9F9F4"/>
			<stop  offset="1" style="stop-color:#CBCCA0"/>
		</radialGradient>
		<polygon fill="url(#SVGID_00000007396928451217881540000010710943421865957275_)" points="160.12,166.47 150.32,165.66 
			146.53,174.73 144.26,165.16 134.46,164.36 142.86,159.25 140.6,149.68 148.06,156.09 156.46,150.98 152.66,160.05 		"/>
	</g>
</g>
<g id="Partly_cloudy">
</g>
</svg>
