<?xml version="1.0" encoding="utf-8"?>
<!-- Generator: Adobe Illustrator 26.5.0, SVG Export Plug-In . SVG Version: 6.00 Build 0)  -->
<svg version="1.1" id="icons" xmlns="http://www.w3.org/2000/svg" xmlns:xlink="http://www.w3.org/1999/xlink" x="0px" y="0px"
	 viewBox="0 0 300 300" enable-background="new 0 0 300 300" xml:space="preserve">
<path fill="#CCCCCC" stroke="#999999" stroke-miterlimit="10" d="M24.61,78.52c11.15-15.95,32.92-14.4,38.01-14.03
	c15.15,1.08,25.66,8.82,29.82,12.28c3.35-5.23,11.01-15.34,23.97-19.3c20.28-6.19,45.47,5.16,60.22,29.24
	c3.99-3.56,14.07-11.48,25.73-9.94c22.06,2.92,39.71,38.39,26.31,57.89c-7.15,10.41-22.13,14.8-37.42,12.86
	c-1.41,16.67-15.28,29.58-31.57,29.82c-15.57,0.23-29.38-11.17-32.16-26.9c0.21,3.11,1.3,22.62-10.52,31.57
	c-13.85,10.49-43.05,4.7-61.98-22.22c-11.18,10.84-28.34,9.43-36.25,0c-8.34-9.95-5.97-28.34,8.19-36.84
	C16.93,108.64,16.08,90.72,24.61,78.52z"/>
<g>
	<radialGradient id="SVGID_1_" cx="150" cy="-180.7784" r="115.4724" gradientUnits="userSpaceOnUse">
		<stop  offset="0" style="stop-color:#FCEE21"/>
		<stop  offset="0.2429" style="stop-color:#FCEB21"/>
		<stop  offset="0.444" style="stop-color:#FBE021"/>
		<stop  offset="0.6302" style="stop-color:#FACF20"/>
		<stop  offset="0.8074" style="stop-color:#F9B71F"/>
		<stop  offset="0.9768" style="stop-color:#F7981E"/>
		<stop  offset="1" style="stop-color:#F7931E"/>
	</radialGradient>
	<polygon fill="url(#SVGID_1_)" points="232.95,-100.58 157.38,-169.9 192.79,-73.65 151.94,-167.73 145.15,-65.39 146.1,-167.95 
		98.27,-77.23 140.85,-170.53 60.25,-107.1 137.1,-175.02 37.67,-149.86 135.5,-180.65 34.44,-198.1 136.33,-186.44 51.11,-243.49 
		139.45,-191.39 84.79,-278.18 144.31,-194.65 129.68,-296.16 150.07,-195.65 177.99,-294.34 155.75,-194.22 221.39,-273.02 
		160.35,-190.6 252.37,-235.89 163.08,-185.43 265.56,-189.37 163.47,-179.59 258.69,-141.51 161.45,-174.1 	"/>
	
		<radialGradient id="SVGID_00000168816047471949586370000017493626380888548252_" cx="150" cy="-180.7784" r="52.0038" gradientUnits="userSpaceOnUse">
		<stop  offset="0" style="stop-color:#FCEE21"/>
		<stop  offset="0.2429" style="stop-color:#FCEB21"/>
		<stop  offset="0.444" style="stop-color:#FBE021"/>
		<stop  offset="0.6302" style="stop-color:#FACF20"/>
		<stop  offset="0.8074" style="stop-color:#F9B71F"/>
		<stop  offset="0.9768" style="stop-color:#F7981E"/>
		<stop  offset="1" style="stop-color:#F7931E"/>
	</radialGradient>
	<circle fill="url(#SVGID_00000168816047471949586370000017493626380888548252_)" cx="150" cy="-180.78" r="52"/>
</g>
<radialGradient id="SVGID_00000137129564737922449630000000803949492877548215_" cx="-169.3943" cy="67.3438" r="69.473" gradientUnits="userSpaceOnUse">
	<stop  offset="0" style="stop-color:#FCEE21"/>
	<stop  offset="0.2429" style="stop-color:#FCEB21"/>
	<stop  offset="0.444" style="stop-color:#FBE021"/>
	<stop  offset="0.6302" style="stop-color:#FACF20"/>
	<stop  offset="0.8074" style="stop-color:#F9B71F"/>
	<stop  offset="0.9768" style="stop-color:#F7981E"/>
	<stop  offset="1" style="stop-color:#F7931E"/>
</radialGradient>
<circle fill="url(#SVGID_00000137129564737922449630000000803949492877548215_)" cx="-169.39" cy="67.34" r="69.47"/>
<g>
	
		<radialGradient id="SVGID_00000114039925658881665650000009871425730407874984_" cx="133.1691" cy="140.3465" r="61.3265" gradientTransform="matrix(-0.1638 0.9865 -0.9865 -0.1638 292.4731 6.3154)" gradientUnits="userSpaceOnUse">
		<stop  offset="0" style="stop-color:#FFFFFF"/>
		<stop  offset="0.1164" style="stop-color:#F9F9F4"/>
		<stop  offset="1" style="stop-color:#CBCCA0"/>
	</radialGradient>
	<path fill="url(#SVGID_00000114039925658881665650000009871425730407874984_)" d="M123.23,172.88
		c-35.07-5.82-58.77-38.96-52.95-74.02c3.64-21.94,17.97-39.43,36.79-48.03c-8.26,8.44-14.12,19.4-16.2,31.93
		c-5.39,32.48,16.57,63.19,49.05,68.58c20.7,3.44,40.7-4.25,53.86-18.68C183.01,160.53,153.84,177.97,123.23,172.88z"/>
	
		<radialGradient id="SVGID_00000168091655107326160510000003126774219932622464_" cx="140.4994" cy="72.6488" r="11.7757" gradientUnits="userSpaceOnUse">
		<stop  offset="0" style="stop-color:#FFFFFF"/>
		<stop  offset="0.1164" style="stop-color:#F9F9F4"/>
		<stop  offset="1" style="stop-color:#CBCCA0"/>
	</radialGradient>
	<polygon fill="url(#SVGID_00000168091655107326160510000003126774219932622464_)" points="152.41,76.6 143.31,75.86 139.79,84.28 
		137.69,75.4 128.58,74.65 136.39,69.9 134.29,61.01 141.21,66.97 149.01,62.22 145.49,70.65 	"/>
	
		<radialGradient id="SVGID_00000071541842296648771260000018121081823113589427_" cx="50.9881" cy="112.3761" r="10.0634" gradientUnits="userSpaceOnUse">
		<stop  offset="0" style="stop-color:#FFFFFF"/>
		<stop  offset="0.1164" style="stop-color:#F9F9F4"/>
		<stop  offset="1" style="stop-color:#CBCCA0"/>
	</radialGradient>
	<polygon fill="url(#SVGID_00000071541842296648771260000018121081823113589427_)" points="61.17,115.76 53.39,115.12 50.38,122.32 
		48.58,114.72 40.81,114.08 47.47,110.03 45.68,102.43 51.6,107.52 58.26,103.47 55.25,110.67 	"/>
	
		<radialGradient id="SVGID_00000031187834950794651680000002706078075213033647_" cx="131.5866" cy="130.3728" r="8.8084" gradientUnits="userSpaceOnUse">
		<stop  offset="0" style="stop-color:#FFFFFF"/>
		<stop  offset="0.1164" style="stop-color:#F9F9F4"/>
		<stop  offset="1" style="stop-color:#CBCCA0"/>
	</radialGradient>
	<polygon fill="url(#SVGID_00000031187834950794651680000002706078075213033647_)" points="140.5,133.33 133.69,132.77 
		131.05,139.08 129.48,132.43 122.67,131.87 128.51,128.32 126.94,121.67 132.12,126.12 137.96,122.57 135.32,128.88 	"/>
</g>
<path fill="#CCCCCC" stroke="#999999" stroke-miterlimit="10" d="M23.52,132.58c9.95-14.24,29.39-12.86,33.94-12.53
	c13.53,0.96,22.91,7.88,26.63,10.96c2.99-4.67,9.83-13.7,21.41-17.23c18.11-5.52,40.6,4.6,53.78,26.11
	c3.57-3.18,12.56-10.25,22.97-8.88c19.69,2.61,35.46,34.28,23.5,51.69c-6.38,9.29-19.76,13.22-33.42,11.49
	c-1.26,14.89-13.65,26.41-28.19,26.63c-13.9,0.21-26.23-9.97-28.72-24.02c0.19,2.78,1.16,20.2-9.4,28.19
	c-12.37,9.37-38.44,4.2-55.35-19.84c-9.98,9.68-25.31,8.42-32.37,0c-7.45-8.89-5.33-25.31,7.31-32.89
	C16.67,159.47,15.91,143.47,23.52,132.58z"/>
<path fill="#CCCCCC" stroke="#999999" stroke-miterlimit="10" d="M123.57,129.37c9.17-13.12,27.09-11.85,31.27-11.55
	c12.47,0.89,21.11,7.26,24.54,10.1c2.76-4.31,9.06-12.62,19.73-15.88c16.69-5.09,37.41,4.24,49.56,24.06
	c3.29-2.93,11.58-9.45,21.17-8.18c18.15,2.4,32.67,31.59,21.65,47.63c-5.88,8.56-18.21,12.18-30.79,10.59
	c-1.16,13.72-12.58,24.34-25.98,24.54c-12.81,0.19-24.18-9.19-26.46-22.13c0.18,2.56,1.07,18.61-8.66,25.98
	c-11.4,8.63-35.42,3.87-51-18.28c-9.2,8.92-23.32,7.76-29.83,0c-6.87-8.19-4.91-23.32,6.74-30.31
	C117.26,154.15,116.56,139.41,123.57,129.37z"/>
<g>
	<path fill="none" stroke="#999999" stroke-width="5" stroke-miterlimit="10" d="M368.73,121.1c3.01-1.98,22.68-14.43,44.91-7.13
		c8.32,2.73,10.6,7.96,19.25,12.12c20.68,9.96,42.4,1.13,43.49,0.71c15.81-6.11,15.92-15,27.09-15.68
		c13.94-0.85,16.34,12.85,32.08,14.97c19.48,2.63,26.76-16.88,44.91-13.54c14.57,2.68,16.99,16.55,29.94,17.11
		c11.25,0.48,20.84-9.5,27.09-17.82"/>
	<path fill="none" stroke="#999999" stroke-width="5" stroke-miterlimit="10" d="M371.99,165.45c3.01-1.98,22.68-14.43,44.91-7.13
		c8.32,2.73,10.6,7.96,19.25,12.12c20.68,9.96,42.4,1.13,43.49,0.71c15.81-6.11,15.92-15,27.09-15.68
		c13.94-0.85,16.34,12.85,32.08,14.97c19.48,2.63,26.76-16.88,44.91-13.54c14.57,2.68,16.99,16.55,29.94,17.11
		c11.25,0.48,20.84-9.5,27.09-17.82"/>
	<path fill="none" stroke="#999999" stroke-width="5" stroke-miterlimit="10" d="M487.43,142.67c-1.33-0.87-9.98-6.35-19.76-3.14
		c-3.66,1.2-4.66,3.5-8.47,5.33c-9.1,4.38-18.65,0.5-19.13,0.31c-6.95-2.69-7-6.6-11.92-6.9c-6.13-0.37-7.19,5.65-14.11,6.59
		c-8.57,1.16-11.77-7.43-19.76-5.96c-6.41,1.18-7.48,7.28-13.17,7.53c-4.95,0.21-9.17-4.18-11.92-7.84"/>
	<path fill="none" stroke="#999999" stroke-width="5" stroke-miterlimit="10" d="M500.2,142.67c1.33-0.87,9.98-6.35,19.76-3.14
		c3.66,1.2,4.66,3.5,8.47,5.33c9.1,4.38,18.65,0.5,19.13,0.31c6.95-2.69,7-6.6,11.92-6.9c6.13-0.37,7.19,5.65,14.11,6.59
		c8.57,1.16,11.77-7.43,19.76-5.96c6.41,1.18,7.48,7.28,13.17,7.53c4.95,0.21,9.17-4.18,11.92-7.84"/>
</g>
</svg>
