<?xml version="1.0" encoding="utf-8"?>
<!-- Generator: Adobe Illustrator 26.5.0, SVG Export Plug-In . SVG Version: 6.00 Build 0)  -->
<svg version="1.1" id="icons" xmlns="http://www.w3.org/2000/svg" xmlns:xlink="http://www.w3.org/1999/xlink" x="0px" y="0px"
	 viewBox="0 0 300 300" enable-background="new 0 0 300 300" xml:space="preserve">
<path fill="#CCCCCC" stroke="#999999" stroke-miterlimit="10" d="M22.39,49.09c11.15-15.95,32.92-14.4,38.01-14.03
	c15.15,1.08,25.66,8.82,29.82,12.28c3.35-5.23,11.01-15.34,23.97-19.3c20.28-6.19,45.47,5.16,60.22,29.24
	c3.99-3.56,14.07-11.48,25.73-9.94c22.06,2.92,39.71,38.39,26.31,57.89c-7.15,10.41-22.13,14.8-37.42,12.86
	c-1.41,16.67-15.28,29.58-31.57,29.82c-15.57,0.23-29.38-11.17-32.16-26.9c0.21,3.11,1.3,22.62-10.52,31.57
	c-13.85,10.49-43.05,4.7-61.98-22.22c-11.18,10.84-28.34,9.43-36.25,0c-8.34-9.95-5.97-28.34,8.19-36.84
	C14.71,79.21,13.86,61.29,22.39,49.09z"/>
<g>
	
		<radialGradient id="SVGID_1_" cx="120.0068" cy="141.3594" r="61.3265" gradientTransform="matrix(-0.1638 0.9865 -0.9865 -0.1638 292.4731 6.3154)" gradientUnits="userSpaceOnUse">
		<stop  offset="0" style="stop-color:#FFFFFF"/>
		<stop  offset="0.1164" style="stop-color:#F9F9F4"/>
		<stop  offset="1" style="stop-color:#CBCCA0"/>
	</radialGradient>
	<path fill="url(#SVGID_1_)" d="M124.38,159.73c-35.07-5.82-58.77-38.96-52.95-74.02c3.64-21.94,17.97-39.43,36.79-48.03
		c-8.26,8.44-14.12,19.4-16.2,31.93c-5.39,32.48,16.57,63.19,49.05,68.58c20.7,3.44,40.7-4.25,53.86-18.68
		C184.17,147.38,155,164.82,124.38,159.73z"/>
	
		<radialGradient id="SVGID_00000023988440311533760820000003558024388648011958_" cx="141.6567" cy="59.4984" r="11.7757" gradientUnits="userSpaceOnUse">
		<stop  offset="0" style="stop-color:#FFFFFF"/>
		<stop  offset="0.1164" style="stop-color:#F9F9F4"/>
		<stop  offset="1" style="stop-color:#CBCCA0"/>
	</radialGradient>
	<polygon fill="url(#SVGID_00000023988440311533760820000003558024388648011958_)" points="153.57,63.45 144.47,62.71 140.95,71.13 
		138.84,62.24 129.74,61.5 137.54,56.75 135.44,47.86 142.37,53.82 150.17,49.07 146.65,57.5 	"/>
	
		<radialGradient id="SVGID_00000170253111288585409170000004452129913017955483_" cx="52.1454" cy="99.2258" r="10.0634" gradientUnits="userSpaceOnUse">
		<stop  offset="0" style="stop-color:#FFFFFF"/>
		<stop  offset="0.1164" style="stop-color:#F9F9F4"/>
		<stop  offset="1" style="stop-color:#CBCCA0"/>
	</radialGradient>
	<polygon fill="url(#SVGID_00000170253111288585409170000004452129913017955483_)" points="62.33,102.61 54.55,101.97 51.54,109.17 
		49.74,101.57 41.96,100.93 48.63,96.88 46.84,89.28 52.75,94.37 59.42,90.32 56.41,97.52 	"/>
	
		<radialGradient id="SVGID_00000049200151972057093840000000259740067125345441_" cx="132.7439" cy="117.2224" r="8.8084" gradientUnits="userSpaceOnUse">
		<stop  offset="0" style="stop-color:#FFFFFF"/>
		<stop  offset="0.1164" style="stop-color:#F9F9F4"/>
		<stop  offset="1" style="stop-color:#CBCCA0"/>
	</radialGradient>
	<polygon fill="url(#SVGID_00000049200151972057093840000000259740067125345441_)" points="141.66,120.18 134.85,119.62 
		132.21,125.93 130.64,119.28 123.83,118.72 129.67,115.17 128.1,108.52 133.28,112.97 139.11,109.42 136.48,115.73 	"/>
</g>
<path fill="#CCCCCC" stroke="#999999" stroke-miterlimit="10" d="M21.3,103.15c9.95-14.24,29.39-12.86,33.94-12.53
	c13.53,0.96,22.91,7.88,26.63,10.96c2.99-4.67,9.83-13.7,21.41-17.23c18.11-5.52,40.6,4.6,53.78,26.11
	c3.57-3.18,12.56-10.25,22.97-8.88c19.69,2.61,35.46,34.28,23.5,51.69c-6.38,9.29-19.76,13.22-33.42,11.49
	c-1.26,14.89-13.65,26.41-28.19,26.63c-13.9,0.21-26.23-9.97-28.72-24.02c0.19,2.78,1.16,20.2-9.4,28.19
	c-12.37,9.37-38.44,4.2-55.35-19.84c-9.98,9.68-25.31,8.42-32.37,0c-7.45-8.89-5.33-25.31,7.31-32.89
	C14.45,130.04,13.69,114.04,21.3,103.15z"/>
<g>
	<path fill="none" stroke="#999999" stroke-width="5" stroke-miterlimit="10" d="M18.8,235.82c3.01-1.98,22.68-14.43,44.91-7.13
		c8.32,2.73,10.6,7.96,19.25,12.12c20.68,9.96,42.4,1.13,43.49,0.71c15.81-6.11,15.92-15,27.09-15.68
		c13.94-0.85,16.34,12.85,32.08,14.97c19.48,2.63,26.76-16.88,44.91-13.54c14.57,2.68,16.99,16.55,29.94,17.11
		c11.25,0.48,20.84-9.5,27.09-17.82"/>
	<path fill="none" stroke="#999999" stroke-width="5" stroke-miterlimit="10" d="M22.06,280.17c3.01-1.98,22.68-14.43,44.91-7.13
		c8.32,2.73,10.6,7.96,19.25,12.12c20.68,9.96,42.4,1.13,43.49,0.71c15.81-6.11,15.92-15,27.09-15.68
		c13.94-0.85,16.34,12.85,32.08,14.97c19.48,2.63,26.76-16.88,44.91-13.54c14.57,2.68,16.99,16.55,29.94,17.11
		c11.25,0.48,20.84-9.5,27.09-17.82"/>
	<path fill="none" stroke="#999999" stroke-width="5" stroke-miterlimit="10" d="M137.5,257.39c-1.33-0.87-9.98-6.35-19.76-3.14
		c-3.66,1.2-4.66,3.5-8.47,5.33c-9.1,4.38-18.65,0.5-19.13,0.31c-6.95-2.69-7-6.6-11.92-6.9c-6.13-0.37-7.19,5.65-14.11,6.59
		c-8.57,1.16-11.77-7.43-19.76-5.96c-6.41,1.18-7.48,7.28-13.17,7.53c-4.95,0.21-9.17-4.18-11.92-7.84"/>
	<path fill="none" stroke="#999999" stroke-width="5" stroke-miterlimit="10" d="M150.27,257.39c1.33-0.87,9.98-6.35,19.76-3.14
		c3.66,1.2,4.66,3.5,8.47,5.33c9.1,4.38,18.65,0.5,19.13,0.31c6.95-2.69,7-6.6,11.92-6.9c6.13-0.37,7.19,5.65,14.11,6.59
		c8.57,1.16,11.77-7.43,19.76-5.96c6.41,1.18,7.48,7.28,13.17,7.53c4.95,0.21,9.17-4.18,11.92-7.84"/>
</g>
<g>
	<path fill="none" stroke="#999999" stroke-width="5" stroke-miterlimit="10" d="M17.17,174.27c3.01-1.98,22.68-14.43,44.91-7.13
		c8.32,2.73,10.6,7.96,19.25,12.12c20.68,9.96,42.4,1.13,43.49,0.71c15.81-6.11,15.92-15,27.09-15.68
		c13.94-0.85,16.34,12.85,32.08,14.97c19.48,2.63,26.76-16.88,44.91-13.54c14.57,2.68,16.99,16.55,29.94,17.11
		c11.25,0.48,20.84-9.5,27.09-17.82"/>
	<path fill="none" stroke="#999999" stroke-width="5" stroke-miterlimit="10" d="M20.43,218.62c3.01-1.98,22.68-14.43,44.91-7.13
		c8.32,2.73,10.6,7.96,19.25,12.12c20.68,9.96,42.4,1.13,43.49,0.71c15.81-6.11,15.92-15,27.09-15.68
		c13.94-0.85,16.34,12.85,32.08,14.97c19.48,2.63,26.76-16.88,44.91-13.54c14.57,2.68,16.99,16.55,29.94,17.11
		c11.25,0.48,20.84-9.5,27.09-17.82"/>
	<path fill="none" stroke="#999999" stroke-width="5" stroke-miterlimit="10" d="M135.87,195.84c-1.33-0.87-9.98-6.35-19.76-3.14
		c-3.66,1.2-4.66,3.5-8.47,5.33c-9.1,4.38-18.65,0.5-19.13,0.31c-6.95-2.69-7-6.6-11.92-6.9c-6.13-0.37-7.19,5.65-14.11,6.59
		c-8.57,1.16-11.77-7.43-19.76-5.96c-6.41,1.18-7.48,7.28-13.17,7.53c-4.95,0.21-9.17-4.18-11.92-7.84"/>
	<path fill="none" stroke="#999999" stroke-width="5" stroke-miterlimit="10" d="M148.64,195.84c1.33-0.87,9.98-6.35,19.76-3.14
		c3.66,1.2,4.66,3.5,8.47,5.33c9.1,4.38,18.65,0.5,19.13,0.31c6.95-2.69,7-6.6,11.92-6.9c6.13-0.37,7.19,5.65,14.11,6.59
		c8.57,1.16,11.77-7.43,19.76-5.96c6.41,1.18,7.48,7.28,13.17,7.53c4.95,0.21,9.17-4.18,11.92-7.84"/>
</g>
<path fill="#CCCCCC" stroke="#999999" stroke-miterlimit="10" d="M121.35,99.94c9.17-13.12,27.09-11.85,31.27-11.55
	c12.47,0.89,21.11,7.26,24.54,10.1c2.76-4.31,9.06-12.62,19.73-15.88c16.69-5.09,37.41,4.24,49.56,24.06
	c3.29-2.93,11.58-9.45,21.17-8.18c18.15,2.4,32.67,31.59,21.65,47.63c-5.88,8.56-18.21,12.18-30.79,10.59
	c-1.16,13.72-12.58,24.34-25.98,24.54c-12.81,0.19-24.18-9.19-26.46-22.13c0.18,2.56,1.07,18.61-8.66,25.98
	c-11.4,8.63-35.42,3.87-51-18.28c-9.2,8.92-23.32,7.76-29.83,0c-6.87-8.19-4.91-23.32,6.74-30.31
	C115.04,124.72,114.34,109.98,121.35,99.94z"/>
</svg>
