<?xml version="1.0" encoding="utf-8"?>
<!-- Generator: Adobe Illustrator 26.5.0, SVG Export Plug-In . SVG Version: 6.00 Build 0)  -->
<svg version="1.1" id="icons" xmlns="http://www.w3.org/2000/svg" xmlns:xlink="http://www.w3.org/1999/xlink" x="0px" y="0px"
	 viewBox="0 0 300 300" enable-background="new 0 0 300 300" xml:space="preserve">
<path fill="#CCCCCC" stroke="#999999" stroke-miterlimit="10" d="M22.39,49.09c11.15-15.95,32.92-14.4,38.01-14.03
	c15.15,1.08,25.66,8.82,29.82,12.28c3.35-5.23,11.01-15.34,23.97-19.3c20.28-6.19,45.47,5.16,60.22,29.24
	c3.99-3.56,14.07-11.48,25.73-9.94c22.06,2.92,39.71,38.39,26.31,57.89c-7.15,10.41-22.13,14.8-37.42,12.86
	c-1.41,16.67-15.28,29.58-31.57,29.82c-15.57,0.23-29.38-11.17-32.16-26.9c0.21,3.11,1.3,22.62-10.52,31.57
	c-13.85,10.49-43.05,4.7-61.98-22.22c-11.18,10.84-28.34,9.43-36.25,0c-8.34-9.95-5.97-28.34,8.19-36.84
	C14.71,79.21,13.86,61.29,22.39,49.09z"/>
<g>
	
		<radialGradient id="SVGID_1_" cx="112.41" cy="139.6114" r="61.3265" gradientTransform="matrix(-0.1638 0.9865 -0.9865 -0.1638 292.4731 6.3154)" gradientUnits="userSpaceOnUse">
		<stop  offset="0" style="stop-color:#FFFFFF"/>
		<stop  offset="0.1164" style="stop-color:#F9F9F4"/>
		<stop  offset="1" style="stop-color:#CBCCA0"/>
	</radialGradient>
	<path fill="url(#SVGID_1_)" d="M127.35,152.52c-35.07-5.82-58.77-38.96-52.95-74.02c3.64-21.94,17.97-39.43,36.79-48.03
		c-8.26,8.44-14.12,19.4-16.2,31.93c-5.39,32.48,16.57,63.19,49.05,68.58c20.7,3.44,40.7-4.25,53.86-18.68
		C187.14,140.17,157.97,157.61,127.35,152.52z"/>
	
		<radialGradient id="SVGID_00000047024925438384065120000007504688812382038719_" cx="144.6257" cy="52.2907" r="11.7757" gradientUnits="userSpaceOnUse">
		<stop  offset="0" style="stop-color:#FFFFFF"/>
		<stop  offset="0.1164" style="stop-color:#F9F9F4"/>
		<stop  offset="1" style="stop-color:#CBCCA0"/>
	</radialGradient>
	<polygon fill="url(#SVGID_00000047024925438384065120000007504688812382038719_)" points="156.54,56.25 147.44,55.5 143.91,63.93 
		141.81,55.04 132.71,54.29 140.51,49.54 138.41,40.66 145.34,46.61 153.14,41.87 149.62,50.29 	"/>
	
		<radialGradient id="SVGID_00000152252660013259072600000012121201034932014228_" cx="55.1144" cy="92.018" r="10.0634" gradientUnits="userSpaceOnUse">
		<stop  offset="0" style="stop-color:#FFFFFF"/>
		<stop  offset="0.1164" style="stop-color:#F9F9F4"/>
		<stop  offset="1" style="stop-color:#CBCCA0"/>
	</radialGradient>
	<polygon fill="url(#SVGID_00000152252660013259072600000012121201034932014228_)" points="65.3,95.4 57.52,94.76 54.51,101.96 
		52.71,94.37 44.93,93.73 51.6,89.67 49.8,82.08 55.72,87.16 62.39,83.11 59.38,90.31 	"/>
	
		<radialGradient id="SVGID_00000147183640850801244320000002049249968400837767_" cx="135.7129" cy="110.0147" r="8.8084" gradientUnits="userSpaceOnUse">
		<stop  offset="0" style="stop-color:#FFFFFF"/>
		<stop  offset="0.1164" style="stop-color:#F9F9F4"/>
		<stop  offset="1" style="stop-color:#CBCCA0"/>
	</radialGradient>
	<polygon fill="url(#SVGID_00000147183640850801244320000002049249968400837767_)" points="144.63,112.97 137.82,112.41 
		135.18,118.72 133.61,112.07 126.8,111.51 132.64,107.96 131.06,101.31 136.24,105.77 142.08,102.22 139.45,108.52 	"/>
</g>
<path fill="#CCCCCC" stroke="#999999" stroke-miterlimit="10" d="M21.3,103.15c9.95-14.24,29.39-12.86,33.94-12.53
	c13.53,0.96,22.91,7.88,26.63,10.96c2.99-4.67,9.83-13.7,21.41-17.23c18.11-5.52,40.6,4.6,53.78,26.11
	c3.57-3.18,12.56-10.25,22.97-8.88c19.69,2.61,35.46,34.28,23.5,51.69c-6.38,9.29-19.76,13.22-33.42,11.49
	c-1.26,14.89-13.65,26.41-28.19,26.63c-13.9,0.21-26.23-9.97-28.72-24.02c0.19,2.78,1.16,20.2-9.4,28.19
	c-12.37,9.37-38.44,4.2-55.35-19.84c-9.98,9.68-25.31,8.42-32.37,0c-7.45-8.89-5.33-25.31,7.31-32.89
	C14.45,130.04,13.69,114.04,21.3,103.15z"/>
<g>
	<ellipse fill="none" stroke="#6ACBDB" stroke-width="2" stroke-miterlimit="10" cx="38.89" cy="218.69" rx="0.41" ry="20.64"/>
	<ellipse fill="none" stroke="#6ACBDB" stroke-width="2" stroke-miterlimit="10" cx="44" cy="239.33" rx="0.41" ry="20.64"/>
	<ellipse fill="none" stroke="#6ACBDB" stroke-width="2" stroke-miterlimit="10" cx="233.18" cy="217.34" rx="0.41" ry="20.64"/>
	<ellipse fill="none" stroke="#6ACBDB" stroke-width="2" stroke-miterlimit="10" cx="228.07" cy="237.98" rx="0.41" ry="20.64"/>
	<ellipse fill="none" stroke="#6ACBDB" stroke-width="2" stroke-miterlimit="10" cx="141.15" cy="231.22" rx="0.41" ry="20.64"/>
	<ellipse fill="none" stroke="#6ACBDB" stroke-width="2" stroke-miterlimit="10" cx="136.03" cy="231.22" rx="0.41" ry="20.64"/>
</g>
<g>
	<ellipse fill="none" stroke="#6ACBDB" stroke-width="2" stroke-miterlimit="10" cx="49.57" cy="218.69" rx="0.41" ry="20.64"/>
	<ellipse fill="none" stroke="#6ACBDB" stroke-width="2" stroke-miterlimit="10" cx="54.68" cy="239.33" rx="0.41" ry="20.64"/>
	<ellipse fill="none" stroke="#6ACBDB" stroke-width="2" stroke-miterlimit="10" cx="243.86" cy="217.34" rx="0.41" ry="20.64"/>
	<ellipse fill="none" stroke="#6ACBDB" stroke-width="2" stroke-miterlimit="10" cx="238.75" cy="237.98" rx="0.41" ry="20.64"/>
	<ellipse fill="none" stroke="#6ACBDB" stroke-width="2" stroke-miterlimit="10" cx="151.83" cy="231.22" rx="0.41" ry="20.64"/>
	<ellipse fill="none" stroke="#6ACBDB" stroke-width="2" stroke-miterlimit="10" cx="146.72" cy="231.22" rx="0.41" ry="20.64"/>
</g>
<path fill="#CCCCCC" stroke="#999999" stroke-miterlimit="10" d="M121.35,99.94c9.17-13.12,27.09-11.85,31.27-11.55
	c12.47,0.89,21.11,7.26,24.54,10.1c2.76-4.31,9.06-12.62,19.73-15.88c16.69-5.09,37.41,4.24,49.56,24.06
	c3.29-2.93,11.58-9.45,21.17-8.18c18.15,2.4,32.67,31.59,21.65,47.63c-5.88,8.56-18.21,12.18-30.79,10.59
	c-1.16,13.72-12.58,24.34-25.98,24.54c-12.81,0.19-24.18-9.19-26.46-22.13c0.18,2.56,1.07,18.61-8.66,25.98
	c-11.4,8.63-35.42,3.87-51-18.28c-9.2,8.92-23.32,7.76-29.83,0c-6.87-8.19-4.91-23.32,6.74-30.31
	C115.04,124.72,114.34,109.98,121.35,99.94z"/>
</svg>
