<?xml version="1.0" encoding="utf-8"?>
<!-- Generator: Adobe Illustrator 26.5.0, SVG Export Plug-In . SVG Version: 6.00 Build 0)  -->
<svg version="1.1" id="icons" xmlns="http://www.w3.org/2000/svg" xmlns:xlink="http://www.w3.org/1999/xlink" x="0px" y="0px"
	 viewBox="0 0 300 300" enable-background="new 0 0 300 300" xml:space="preserve">
<path fill="#CCCCCC" stroke="#999999" stroke-miterlimit="10" d="M22.39,49.09c11.15-15.95,32.92-14.4,38.01-14.03
	c15.15,1.08,25.66,8.82,29.82,12.28c3.35-5.23,11.01-15.34,23.97-19.3c20.28-6.19,45.47,5.16,60.22,29.24
	c3.99-3.56,14.07-11.48,25.73-9.94c22.06,2.92,39.71,38.39,26.31,57.89c-7.15,10.41-22.13,14.8-37.42,12.86
	c-1.41,16.67-15.28,29.58-31.57,29.82c-15.57,0.23-29.38-11.17-32.16-26.9c0.21,3.11,1.3,22.62-10.52,31.57
	c-13.85,10.49-43.05,4.7-61.98-22.22c-11.18,10.84-28.34,9.43-36.25,0c-8.34-9.95-5.97-28.34,8.19-36.84
	C14.71,79.21,13.86,61.29,22.39,49.09z"/>
<radialGradient id="SVGID_1_" cx="123.8311" cy="105.5199" r="69.473" gradientUnits="userSpaceOnUse">
	<stop  offset="0" style="stop-color:#FCEE21"/>
	<stop  offset="0.2429" style="stop-color:#FCEB21"/>
	<stop  offset="0.444" style="stop-color:#FBE021"/>
	<stop  offset="0.6302" style="stop-color:#FACF20"/>
	<stop  offset="0.8074" style="stop-color:#F9B71F"/>
	<stop  offset="0.9768" style="stop-color:#F7981E"/>
	<stop  offset="1" style="stop-color:#F7931E"/>
</radialGradient>
<circle fill="url(#SVGID_1_)" cx="123.83" cy="105.52" r="69.47"/>
<path fill="#CCCCCC" stroke="#999999" stroke-miterlimit="10" d="M21.3,103.15c9.95-14.24,29.39-12.86,33.94-12.53
	c13.53,0.96,22.91,7.88,26.63,10.96c2.99-4.67,9.83-13.7,21.41-17.23c18.11-5.52,40.6,4.6,53.78,26.11
	c3.57-3.18,12.56-10.25,22.97-8.88c19.69,2.61,35.46,34.28,23.5,51.69c-6.38,9.29-19.76,13.22-33.42,11.49
	c-1.26,14.89-13.65,26.41-28.19,26.63c-13.9,0.21-26.23-9.97-28.72-24.02c0.19,2.78,1.16,20.2-9.4,28.19
	c-12.37,9.37-38.44,4.2-55.35-19.84c-9.98,9.68-25.31,8.42-32.37,0c-7.45-8.89-5.33-25.31,7.31-32.89
	C14.45,130.04,13.69,114.04,21.3,103.15z"/>
<g>
	<path fill="none" stroke="#999999" stroke-width="5" stroke-miterlimit="10" d="M124.88,233.95c1.93-1.27,14.56-9.26,28.82-4.57
		c5.34,1.75,6.81,5.11,12.35,7.78c13.27,6.39,27.21,0.73,27.91,0.46c10.14-3.92,10.22-9.63,17.38-10.06
		c8.95-0.55,10.49,8.24,20.59,9.61c12.5,1.69,17.17-10.83,28.82-8.69c9.35,1.72,10.91,10.62,19.21,10.98
		c7.22,0.31,13.37-6.1,17.38-11.44"/>
	<path fill="none" stroke="#999999" stroke-width="5" stroke-miterlimit="10" d="M126.97,262.41c1.93-1.27,14.56-9.26,28.82-4.57
		c5.34,1.75,6.81,5.11,12.35,7.78c13.27,6.39,27.21,0.73,27.91,0.46c10.14-3.92,10.22-9.63,17.38-10.06
		c8.95-0.55,10.49,8.24,20.59,9.61c12.5,1.69,17.17-10.83,28.82-8.69c9.35,1.72,10.91,10.62,19.21,10.98
		c7.22,0.31,13.37-6.1,17.38-11.44"/>
	<path fill="none" stroke="#999999" stroke-width="5" stroke-miterlimit="10" d="M201.06,247.79c-0.85-0.56-6.4-4.07-12.68-2.01
		c-2.35,0.77-2.99,2.25-5.43,3.42c-5.84,2.81-11.97,0.32-12.28,0.2c-4.46-1.73-4.49-4.24-7.65-4.43c-3.94-0.24-4.61,3.63-9.06,4.23
		c-5.5,0.74-7.55-4.77-12.68-3.82c-4.11,0.76-4.8,4.67-8.45,4.83c-3.18,0.14-5.88-2.68-7.65-5.03"/>
	<path fill="none" stroke="#999999" stroke-width="5" stroke-miterlimit="10" d="M209.25,247.79c0.85-0.56,6.4-4.07,12.68-2.01
		c2.35,0.77,2.99,2.25,5.43,3.42c5.84,2.81,11.97,0.32,12.28,0.2c4.46-1.73,4.49-4.24,7.65-4.43c3.94-0.24,4.61,3.63,9.06,4.23
		c5.5,0.74,7.55-4.77,12.68-3.82c4.11,0.76,4.8,4.67,8.45,4.83c3.18,0.14,5.88-2.68,7.65-5.03"/>
</g>
<g>
	<path fill="none" stroke="#999999" stroke-width="5" stroke-miterlimit="10" d="M123.83,194.45c1.93-1.27,14.56-9.26,28.82-4.57
		c5.34,1.75,6.81,5.11,12.35,7.78c13.27,6.39,27.21,0.73,27.91,0.46c10.14-3.92,10.22-9.63,17.38-10.06
		c8.95-0.55,10.49,8.24,20.59,9.61c12.5,1.69,17.17-10.83,28.82-8.69c9.35,1.72,10.91,10.62,19.21,10.98
		c7.22,0.31,13.37-6.1,17.38-11.44"/>
	<path fill="none" stroke="#999999" stroke-width="5" stroke-miterlimit="10" d="M125.92,222.91c1.93-1.27,14.56-9.26,28.82-4.57
		c5.34,1.75,6.81,5.11,12.35,7.78c13.27,6.39,27.21,0.73,27.91,0.46c10.14-3.92,10.22-9.63,17.38-10.06
		c8.95-0.55,10.49,8.24,20.59,9.61c12.5,1.69,17.17-10.83,28.82-8.69c9.35,1.72,10.91,10.62,19.21,10.98
		c7.22,0.31,13.37-6.1,17.38-11.44"/>
	<path fill="none" stroke="#999999" stroke-width="5" stroke-miterlimit="10" d="M200.01,208.29c-0.85-0.56-6.4-4.07-12.68-2.01
		c-2.35,0.77-2.99,2.25-5.43,3.42c-5.84,2.81-11.97,0.32-12.28,0.2c-4.46-1.73-4.49-4.24-7.65-4.43c-3.94-0.24-4.61,3.63-9.06,4.23
		c-5.5,0.74-7.55-4.77-12.68-3.82c-4.11,0.76-4.8,4.67-8.45,4.83c-3.18,0.14-5.88-2.68-7.65-5.03"/>
	<path fill="none" stroke="#999999" stroke-width="5" stroke-miterlimit="10" d="M208.2,208.29c0.85-0.56,6.4-4.07,12.68-2.01
		c2.35,0.77,2.99,2.25,5.43,3.42c5.84,2.81,11.97,0.32,12.28,0.2c4.46-1.73,4.49-4.24,7.65-4.43c3.94-0.24,4.61,3.63,9.06,4.23
		c5.5,0.74,7.55-4.77,12.68-3.82c4.11,0.76,4.8,4.67,8.45,4.83c3.18,0.14,5.88-2.68,7.65-5.03"/>
</g>
<ellipse fill="none" stroke="#6ACBDB" stroke-width="2" stroke-miterlimit="10" cx="58.44" cy="230.85" rx="0.86" ry="20.64"/>
<ellipse fill="none" stroke="#6ACBDB" stroke-width="2" stroke-miterlimit="10" cx="47.74" cy="230.85" rx="0.86" ry="20.64"/>
<ellipse fill="none" stroke="#6ACBDB" stroke-width="2" stroke-miterlimit="10" cx="81.77" cy="230.85" rx="0.86" ry="20.64"/>
<ellipse fill="none" stroke="#6ACBDB" stroke-width="2" stroke-miterlimit="10" cx="71.07" cy="230.85" rx="0.86" ry="20.64"/>
<path fill="#CCCCCC" stroke="#999999" stroke-miterlimit="10" d="M121.35,99.94c9.17-13.12,27.09-11.85,31.27-11.55
	c12.47,0.89,21.11,7.26,24.54,10.1c2.76-4.31,9.06-12.62,19.73-15.88c16.69-5.09,37.41,4.24,49.56,24.06
	c3.29-2.93,11.58-9.45,21.17-8.18c18.15,2.4,32.67,31.59,21.65,47.63c-5.88,8.56-18.21,12.18-30.79,10.59
	c-1.16,13.72-12.58,24.34-25.98,24.54c-12.81,0.19-24.18-9.19-26.46-22.13c0.18,2.56,1.07,18.61-8.66,25.98
	c-11.4,8.63-35.42,3.87-51-18.28c-9.2,8.92-23.32,7.76-29.83,0c-6.87-8.19-4.91-23.32,6.74-30.31
	C115.04,124.72,114.34,109.98,121.35,99.94z"/>
</svg>
