<?xml version="1.0" encoding="utf-8"?>
<!-- Generator: Adobe Illustrator 26.5.0, SVG Export Plug-In . SVG Version: 6.00 Build 0)  -->
<svg version="1.1" id="icons" xmlns="http://www.w3.org/2000/svg" xmlns:xlink="http://www.w3.org/1999/xlink" x="0px" y="0px"
	 viewBox="0 0 300 300" enable-background="new 0 0 300 300" xml:space="preserve">
<path fill="#CCCCCC" stroke="#999999" stroke-miterlimit="10" d="M22.39,49.09c11.15-15.95,32.92-14.4,38.01-14.03
	c15.15,1.08,25.66,8.82,29.82,12.28c3.35-5.23,11.01-15.34,23.97-19.3c20.28-6.19,45.47,5.16,60.22,29.24
	c3.99-3.56,14.07-11.48,25.73-9.94c22.06,2.92,39.71,38.39,26.31,57.89c-7.15,10.41-22.13,14.8-37.42,12.86
	c-1.41,16.67-15.28,29.58-31.57,29.82c-15.57,0.23-29.38-11.17-32.16-26.9c0.21,3.11,1.3,22.62-10.52,31.57
	c-13.85,10.49-43.05,4.7-61.98-22.22c-11.18,10.84-28.34,9.43-36.25,0c-8.34-9.95-5.97-28.34,8.19-36.84
	C14.71,79.21,13.86,61.29,22.39,49.09z"/>
<g>
	
		<radialGradient id="SVGID_1_" cx="108.9037" cy="135.2195" r="61.3265" gradientTransform="matrix(-0.1638 0.9865 -0.9865 -0.1638 292.4731 6.3154)" gradientUnits="userSpaceOnUse">
		<stop  offset="0" style="stop-color:#FFFFFF"/>
		<stop  offset="0.1164" style="stop-color:#F9F9F4"/>
		<stop  offset="1" style="stop-color:#CBCCA0"/>
	</radialGradient>
	<path fill="url(#SVGID_1_)" d="M132.26,149.79c-35.07-5.82-58.77-38.96-52.95-74.02c3.64-21.94,17.97-39.43,36.79-48.03
		c-8.26,8.44-14.12,19.4-16.2,31.93c-5.39,32.48,16.57,63.19,49.05,68.58c20.7,3.44,40.7-4.25,53.86-18.68
		C192.04,137.43,162.88,154.87,132.26,149.79z"/>
	
		<radialGradient id="SVGID_00000062182256135478643920000006020071122713537409_" cx="149.5328" cy="49.5513" r="11.7757" gradientUnits="userSpaceOnUse">
		<stop  offset="0" style="stop-color:#FFFFFF"/>
		<stop  offset="0.1164" style="stop-color:#F9F9F4"/>
		<stop  offset="1" style="stop-color:#CBCCA0"/>
	</radialGradient>
	<polygon fill="url(#SVGID_00000062182256135478643920000006020071122713537409_)" points="161.45,53.51 152.35,52.76 148.82,61.19 
		146.72,52.3 137.62,51.55 145.42,46.8 143.32,37.92 150.24,43.87 158.05,39.13 154.52,47.55 	"/>
	
		<radialGradient id="SVGID_00000096746610479647256460000000189695470542081923_" cx="60.0215" cy="89.2786" r="10.0634" gradientUnits="userSpaceOnUse">
		<stop  offset="0" style="stop-color:#FFFFFF"/>
		<stop  offset="0.1164" style="stop-color:#F9F9F4"/>
		<stop  offset="1" style="stop-color:#CBCCA0"/>
	</radialGradient>
	<polygon fill="url(#SVGID_00000096746610479647256460000000189695470542081923_)" points="70.2,92.66 62.43,92.02 59.41,99.22 
		57.62,91.63 49.84,90.99 56.51,86.93 54.71,79.34 60.63,84.42 67.3,80.37 64.29,87.57 	"/>
	
		<radialGradient id="SVGID_00000157993878275423024960000013818789824554885823_" cx="140.62" cy="107.2752" r="8.8084" gradientUnits="userSpaceOnUse">
		<stop  offset="0" style="stop-color:#FFFFFF"/>
		<stop  offset="0.1164" style="stop-color:#F9F9F4"/>
		<stop  offset="1" style="stop-color:#CBCCA0"/>
	</radialGradient>
	<polygon fill="url(#SVGID_00000157993878275423024960000013818789824554885823_)" points="149.53,110.23 142.72,109.68 
		140.09,115.98 138.52,109.33 131.71,108.77 137.54,105.22 135.97,98.57 141.15,103.03 146.99,99.48 144.35,105.78 	"/>
</g>
<path fill="#CCCCCC" stroke="#999999" stroke-miterlimit="10" d="M21.3,103.15c9.95-14.24,29.39-12.86,33.94-12.53
	c13.53,0.96,22.91,7.88,26.63,10.96c2.99-4.67,9.83-13.7,21.41-17.23c18.11-5.52,40.6,4.6,53.78,26.11
	c3.57-3.18,12.56-10.25,22.97-8.88c19.69,2.61,35.46,34.28,23.5,51.69c-6.38,9.29-19.76,13.22-33.42,11.49
	c-1.26,14.89-13.65,26.41-28.19,26.63c-13.9,0.21-26.23-9.97-28.72-24.02c0.19,2.78,1.16,20.2-9.4,28.19
	c-12.37,9.37-38.44,4.2-55.35-19.84c-9.98,9.68-25.31,8.42-32.37,0c-7.45-8.89-5.33-25.31,7.31-32.89
	C14.45,130.04,13.69,114.04,21.3,103.15z"/>
<ellipse fill="none" stroke="#0071BC" stroke-width="4" stroke-miterlimit="10" cx="244.73" cy="219.93" rx="0.41" ry="20.64"/>
<ellipse fill="none" stroke="#0071BC" stroke-width="4" stroke-miterlimit="10" cx="237.61" cy="240.57" rx="0.41" ry="20.64"/>
<ellipse fill="none" stroke="#0071BC" stroke-width="4" stroke-miterlimit="10" cx="152.69" cy="233.81" rx="0.41" ry="20.64"/>
<ellipse fill="none" stroke="#0071BC" stroke-width="4" stroke-miterlimit="10" cx="145.58" cy="233.81" rx="0.41" ry="20.64"/>
<ellipse fill="none" stroke="#0071BC" stroke-width="4" stroke-miterlimit="10" cx="59.11" cy="221.28" rx="0.41" ry="20.64"/>
<ellipse fill="none" stroke="#0071BC" stroke-width="4" stroke-miterlimit="10" cx="65.92" cy="241.93" rx="0.1" ry="20.64"/>
<ellipse fill="none" stroke="#0071BC" stroke-width="4" stroke-miterlimit="10" cx="231.43" cy="216.67" rx="0.41" ry="20.64"/>
<ellipse fill="none" stroke="#0071BC" stroke-width="4" stroke-miterlimit="10" cx="224.32" cy="237.31" rx="0.41" ry="20.64"/>
<ellipse fill="none" stroke="#0071BC" stroke-width="4" stroke-miterlimit="10" cx="139.4" cy="230.55" rx="0.41" ry="20.64"/>
<ellipse fill="none" stroke="#0071BC" stroke-width="4" stroke-miterlimit="10" cx="132.28" cy="230.55" rx="0.41" ry="20.64"/>
<ellipse fill="none" stroke="#0071BC" stroke-width="4" stroke-miterlimit="10" cx="45.82" cy="218.02" rx="0.41" ry="20.64"/>
<ellipse fill="none" stroke="#0071BC" stroke-width="4" stroke-miterlimit="10" cx="52.62" cy="238.66" rx="0.1" ry="20.64"/>
<path fill="#CCCCCC" stroke="#999999" stroke-miterlimit="10" d="M121.35,99.94c9.17-13.12,27.09-11.85,31.27-11.55
	c12.47,0.89,21.11,7.26,24.54,10.1c2.76-4.31,9.06-12.62,19.73-15.88c16.69-5.09,37.41,4.24,49.56,24.06
	c3.29-2.93,11.58-9.45,21.17-8.18c18.15,2.4,32.67,31.59,21.65,47.63c-5.88,8.56-18.21,12.18-30.79,10.59
	c-1.16,13.72-12.58,24.34-25.98,24.54c-12.81,0.19-24.18-9.19-26.46-22.13c0.18,2.56,1.07,18.61-8.66,25.98
	c-11.4,8.63-35.42,3.87-51-18.28c-9.2,8.92-23.32,7.76-29.83,0c-6.87-8.19-4.91-23.32,6.74-30.31
	C115.04,124.72,114.34,109.98,121.35,99.94z"/>
</svg>
