<?xml version="1.0" encoding="utf-8"?>
<!-- Generator: Adobe Illustrator 26.5.0, SVG Export Plug-In . SVG Version: 6.00 Build 0)  -->
<svg version="1.1" id="icons" xmlns="http://www.w3.org/2000/svg" xmlns:xlink="http://www.w3.org/1999/xlink" x="0px" y="0px"
	 viewBox="0 0 300 300" enable-background="new 0 0 300 300" xml:space="preserve">
<path fill="#CCCCCC" stroke="#999999" stroke-miterlimit="10" d="M22.39,49.09c11.15-15.95,32.92-14.4,38.01-14.03
	c15.15,1.08,25.66,8.82,29.82,12.28c3.35-5.23,11.01-15.34,23.97-19.3c20.28-6.19,45.47,5.16,60.22,29.24
	c3.99-3.56,14.07-11.48,25.73-9.94c22.06,2.92,39.71,38.39,26.31,57.89c-7.15,10.41-22.13,14.8-37.42,12.86
	c-1.41,16.67-15.28,29.58-31.57,29.82c-15.57,0.23-29.38-11.17-32.16-26.9c0.21,3.11,1.3,22.62-10.52,31.57
	c-13.85,10.49-43.05,4.7-61.98-22.22c-11.18,10.84-28.34,9.43-36.25,0c-8.34-9.95-5.97-28.34,8.19-36.84
	C14.71,79.21,13.86,61.29,22.39,49.09z"/>
<g>
	
		<radialGradient id="SVGID_1_" cx="109.9407" cy="133.8753" r="61.3265" gradientTransform="matrix(-0.1638 0.9865 -0.9865 -0.1638 292.4731 6.3154)" gradientUnits="userSpaceOnUse">
		<stop  offset="0" style="stop-color:#FFFFFF"/>
		<stop  offset="0.1164" style="stop-color:#F9F9F4"/>
		<stop  offset="1" style="stop-color:#CBCCA0"/>
	</radialGradient>
	<path fill="url(#SVGID_1_)" d="M133.42,151.03c-35.07-5.82-58.77-38.96-52.95-74.02c3.64-21.94,17.97-39.43,36.79-48.03
		c-8.26,8.44-14.12,19.4-16.2,31.93c-5.39,32.48,16.57,63.19,49.05,68.58c20.7,3.44,40.7-4.25,53.86-18.68
		C193.2,138.67,164.03,156.11,133.42,151.03z"/>
	
		<radialGradient id="SVGID_00000012468096052210580870000006149376199799167106_" cx="150.6889" cy="50.7945" r="11.7757" gradientUnits="userSpaceOnUse">
		<stop  offset="0" style="stop-color:#FFFFFF"/>
		<stop  offset="0.1164" style="stop-color:#F9F9F4"/>
		<stop  offset="1" style="stop-color:#CBCCA0"/>
	</radialGradient>
	<polygon fill="url(#SVGID_00000012468096052210580870000006149376199799167106_)" points="162.6,54.75 153.5,54 149.98,62.43 
		147.88,53.54 138.77,52.79 146.58,48.05 144.47,39.16 151.4,45.11 159.2,40.37 155.68,48.8 	"/>
	
		<radialGradient id="SVGID_00000172413723547826876840000010295274123407471036_" cx="61.1776" cy="90.5218" r="10.0634" gradientUnits="userSpaceOnUse">
		<stop  offset="0" style="stop-color:#FFFFFF"/>
		<stop  offset="0.1164" style="stop-color:#F9F9F4"/>
		<stop  offset="1" style="stop-color:#CBCCA0"/>
	</radialGradient>
	<polygon fill="url(#SVGID_00000172413723547826876840000010295274123407471036_)" points="71.36,93.9 63.58,93.26 60.57,100.46 
		58.77,92.87 50.99,92.23 57.66,88.17 55.87,80.58 61.79,85.67 68.45,81.61 65.44,88.81 	"/>
	
		<radialGradient id="SVGID_00000155849165829773539650000009263961999055875261_" cx="141.7761" cy="108.5184" r="8.8084" gradientUnits="userSpaceOnUse">
		<stop  offset="0" style="stop-color:#FFFFFF"/>
		<stop  offset="0.1164" style="stop-color:#F9F9F4"/>
		<stop  offset="1" style="stop-color:#CBCCA0"/>
	</radialGradient>
	<polygon fill="url(#SVGID_00000155849165829773539650000009263961999055875261_)" points="150.69,111.48 143.88,110.92 
		141.24,117.22 139.67,110.57 132.86,110.01 138.7,106.46 137.13,99.82 142.31,104.27 148.14,100.72 145.51,107.02 	"/>
</g>
<path fill="#CCCCCC" stroke="#999999" stroke-miterlimit="10" d="M21.3,103.15c9.95-14.24,29.39-12.86,33.94-12.53
	c13.53,0.96,22.91,7.88,26.63,10.96c2.99-4.67,9.83-13.7,21.41-17.23c18.11-5.52,40.6,4.6,53.78,26.11
	c3.57-3.18,12.56-10.25,22.97-8.88c19.69,2.61,35.46,34.28,23.5,51.69c-6.38,9.29-19.76,13.22-33.42,11.49
	c-1.26,14.89-13.65,26.41-28.19,26.63c-13.9,0.21-26.23-9.97-28.72-24.02c0.19,2.78,1.16,20.2-9.4,28.19
	c-12.37,9.37-38.44,4.2-55.35-19.84c-9.98,9.68-25.31,8.42-32.37,0c-7.45-8.89-5.33-25.31,7.31-32.89
	C14.45,130.04,13.69,114.04,21.3,103.15z"/>
<g>
	<polygon fill="#E6E6E6" points="55.23,220.79 50.4,223.36 50.03,228.81 45.02,226.63 40.52,229.75 39.1,224.47 33.86,222.9 
		37.1,218.5 35.06,213.42 40.53,213.21 43.22,208.45 46.8,212.59 52.2,211.73 51.19,217.11 	"/>
	<polygon fill="#E6E6E6" points="71.75,236.4 66.92,238.96 66.56,244.42 61.54,242.24 57.05,245.36 55.63,240.08 50.39,238.51 
		53.63,234.1 51.59,229.03 57.05,228.82 59.75,224.06 63.32,228.2 68.72,227.34 67.71,232.71 	"/>
	<polygon fill="#E6E6E6" points="154.69,229.26 149.86,231.83 149.49,237.28 144.48,235.1 139.98,238.22 138.56,232.94 
		133.32,231.37 136.56,226.97 134.52,221.89 139.99,221.68 142.68,216.92 146.26,221.06 151.66,220.2 150.65,225.58 	"/>
	<polygon fill="#E6E6E6" points="176.05,229.26 171.22,231.83 170.86,237.28 165.84,235.1 161.35,238.22 159.92,232.94 
		154.69,231.37 157.93,226.97 155.89,221.89 161.35,221.68 164.05,216.92 167.62,221.06 173.02,220.2 172.01,225.58 	"/>
	<polygon fill="#E6E6E6" points="254.14,223.65 258.98,226.21 259.34,231.67 264.36,229.49 268.85,232.61 270.27,227.33 
		275.51,225.76 272.27,221.35 274.31,216.28 268.84,216.07 266.15,211.31 262.58,215.45 257.18,214.59 258.18,219.96 	"/>
	<polygon fill="#E6E6E6" points="237.62,239.26 242.45,241.82 242.82,247.27 247.83,245.1 252.32,248.21 253.75,242.93 
		258.99,241.36 255.74,236.96 257.78,231.89 252.32,231.67 249.62,226.91 246.05,231.05 240.65,230.2 241.66,235.57 	"/>
</g>
<path fill="#CCCCCC" stroke="#999999" stroke-miterlimit="10" d="M121.35,99.94c9.17-13.12,27.09-11.85,31.27-11.55
	c12.47,0.89,21.11,7.26,24.54,10.1c2.76-4.31,9.06-12.62,19.73-15.88c16.69-5.09,37.41,4.24,49.56,24.06
	c3.29-2.93,11.58-9.45,21.17-8.18c18.15,2.4,32.67,31.59,21.65,47.63c-5.88,8.56-18.21,12.18-30.79,10.59
	c-1.16,13.72-12.58,24.34-25.98,24.54c-12.81,0.19-24.18-9.19-26.46-22.13c0.18,2.56,1.07,18.61-8.66,25.98
	c-11.4,8.63-35.42,3.87-51-18.28c-9.2,8.92-23.32,7.76-29.83,0c-6.87-8.19-4.91-23.32,6.74-30.31
	C115.04,124.72,114.34,109.98,121.35,99.94z"/>
</svg>
