<?xml version="1.0" encoding="utf-8"?>
<!-- Generator: Adobe Illustrator 26.5.0, SVG Export Plug-In . SVG Version: 6.00 Build 0)  -->
<svg version="1.1" id="icons" xmlns="http://www.w3.org/2000/svg" xmlns:xlink="http://www.w3.org/1999/xlink" x="0px" y="0px"
	 viewBox="0 0 300 300" enable-background="new 0 0 300 300" xml:space="preserve">
<path fill="#CCCCCC" stroke="#999999" stroke-miterlimit="10" d="M22.39,49.09c11.15-15.95,32.92-14.4,38.01-14.03
	c15.15,1.08,25.66,8.82,29.82,12.28c3.35-5.23,11.01-15.34,23.97-19.3c20.28-6.19,45.47,5.16,60.22,29.24
	c3.99-3.56,14.07-11.48,25.73-9.94c22.06,2.92,39.71,38.39,26.31,57.89c-7.15,10.41-22.13,14.8-37.42,12.86
	c-1.41,16.67-15.28,29.58-31.57,29.82c-15.57,0.23-29.38-11.17-32.16-26.9c0.21,3.11,1.3,22.62-10.52,31.57
	c-13.85,10.49-43.05,4.7-61.98-22.22c-11.18,10.84-28.34,9.43-36.25,0c-8.34-9.95-5.97-28.34,8.19-36.84
	C14.71,79.21,13.86,61.29,22.39,49.09z"/>
<g>
	
		<radialGradient id="SVGID_1_" cx="114.3516" cy="139.2889" r="61.3265" gradientTransform="matrix(-0.1638 0.9865 -0.9865 -0.1638 292.4731 6.3154)" gradientUnits="userSpaceOnUse">
		<stop  offset="0" style="stop-color:#FFFFFF"/>
		<stop  offset="0.1164" style="stop-color:#F9F9F4"/>
		<stop  offset="1" style="stop-color:#CBCCA0"/>
	</radialGradient>
	<path fill="url(#SVGID_1_)" d="M127.35,154.49c-35.07-5.82-58.77-38.96-52.95-74.02c3.64-21.94,17.97-39.43,36.79-48.03
		c-8.26,8.44-14.12,19.4-16.2,31.93c-5.39,32.48,16.57,63.19,49.05,68.58c20.7,3.44,40.7-4.25,53.86-18.68
		C187.14,142.14,157.97,159.58,127.35,154.49z"/>
	
		<radialGradient id="SVGID_00000098195147855912007430000013801061364965539233_" cx="144.6257" cy="54.2589" r="11.7757" gradientUnits="userSpaceOnUse">
		<stop  offset="0" style="stop-color:#FFFFFF"/>
		<stop  offset="0.1164" style="stop-color:#F9F9F4"/>
		<stop  offset="1" style="stop-color:#CBCCA0"/>
	</radialGradient>
	<polygon fill="url(#SVGID_00000098195147855912007430000013801061364965539233_)" points="156.54,58.21 147.44,57.47 143.91,65.89 
		141.81,57.01 132.71,56.26 140.51,51.51 138.41,42.62 145.34,48.58 153.14,43.83 149.62,52.26 	"/>
	
		<radialGradient id="SVGID_00000040572528542182099510000015274696244491747007_" cx="55.1144" cy="93.9863" r="10.0634" gradientUnits="userSpaceOnUse">
		<stop  offset="0" style="stop-color:#FFFFFF"/>
		<stop  offset="0.1164" style="stop-color:#F9F9F4"/>
		<stop  offset="1" style="stop-color:#CBCCA0"/>
	</radialGradient>
	<polygon fill="url(#SVGID_00000040572528542182099510000015274696244491747007_)" points="65.3,97.37 57.52,96.73 54.51,103.93 
		52.71,96.33 44.93,95.69 51.6,91.64 49.8,84.04 55.72,89.13 62.39,85.08 59.38,92.28 	"/>
	
		<radialGradient id="SVGID_00000124159054187866801920000016109196923924414112_" cx="135.7129" cy="111.9829" r="8.8084" gradientUnits="userSpaceOnUse">
		<stop  offset="0" style="stop-color:#FFFFFF"/>
		<stop  offset="0.1164" style="stop-color:#F9F9F4"/>
		<stop  offset="1" style="stop-color:#CBCCA0"/>
	</radialGradient>
	<polygon fill="url(#SVGID_00000124159054187866801920000016109196923924414112_)" points="144.63,114.94 137.82,114.38 
		135.18,120.69 133.61,114.04 126.8,113.48 132.64,109.93 131.06,103.28 136.24,107.73 142.08,104.18 139.45,110.49 	"/>
</g>
<path fill="#CCCCCC" stroke="#999999" stroke-miterlimit="10" d="M21.3,103.15c9.95-14.24,29.39-12.86,33.94-12.53
	c13.53,0.96,22.91,7.88,26.63,10.96c2.99-4.67,9.83-13.7,21.41-17.23c18.11-5.52,40.6,4.6,53.78,26.11
	c3.57-3.18,12.56-10.25,22.97-8.88c19.69,2.61,35.46,34.28,23.5,51.69c-6.38,9.29-19.76,13.22-33.42,11.49
	c-1.26,14.89-13.65,26.41-28.19,26.63c-13.9,0.21-26.23-9.97-28.72-24.02c0.19,2.78,1.16,20.2-9.4,28.19
	c-12.37,9.37-38.44,4.2-55.35-19.84c-9.98,9.68-25.31,8.42-32.37,0c-7.45-8.89-5.33-25.31,7.31-32.89
	C14.45,130.04,13.69,114.04,21.3,103.15z"/>
<g>
	<polygon fill="#E6E6E6" points="48.23,212.3 43.4,214.86 43.03,220.32 38.02,218.14 33.53,221.26 32.1,215.98 26.86,214.41 
		30.1,210 28.07,204.93 33.53,204.72 36.23,199.96 39.8,204.1 45.2,203.24 44.19,208.61 	"/>
	<polygon fill="#E6E6E6" points="64.75,227.91 59.92,230.47 59.56,235.92 54.54,233.74 50.05,236.86 48.63,231.58 43.39,230.01 
		46.63,225.61 44.59,220.53 50.05,220.32 52.75,215.56 56.32,219.7 61.72,218.84 60.71,224.22 	"/>
	<polygon fill="#E6E6E6" points="147.69,220.77 142.86,223.33 142.49,228.79 137.48,226.61 132.98,229.72 131.56,224.44 
		126.32,222.88 129.56,218.47 127.52,213.4 132.99,213.18 135.68,208.43 139.26,212.57 144.66,211.71 143.65,217.08 	"/>
	<polygon fill="#E6E6E6" points="169.05,220.77 164.22,223.33 163.86,228.79 158.84,226.61 154.35,229.72 152.93,224.44 
		147.69,222.88 150.93,218.47 148.89,213.4 154.35,213.18 157.05,208.43 160.62,212.57 166.02,211.71 165.01,217.08 	"/>
	<polygon fill="#E6E6E6" points="247.15,215.16 251.98,217.72 252.34,223.17 257.36,221 261.85,224.11 263.27,218.83 268.51,217.26 
		265.27,212.86 267.31,207.78 261.85,207.57 259.15,202.81 255.58,206.95 250.18,206.1 251.19,211.47 	"/>
	<polygon fill="#E6E6E6" points="230.62,230.76 235.45,233.32 235.82,238.78 240.83,236.6 245.33,239.72 246.75,234.44 
		251.99,232.87 248.75,228.46 250.79,223.39 245.32,223.18 242.63,218.42 239.05,222.56 233.65,221.7 234.66,227.08 	"/>
</g>
<path fill="#CCCCCC" stroke="#999999" stroke-miterlimit="10" d="M121.35,99.94c9.17-13.12,27.09-11.85,31.27-11.55
	c12.47,0.89,21.11,7.26,24.54,10.1c2.76-4.31,9.06-12.62,19.73-15.88c16.69-5.09,37.41,4.24,49.56,24.06
	c3.29-2.93,11.58-9.45,21.17-8.18c18.15,2.4,32.67,31.59,21.65,47.63c-5.88,8.56-18.21,12.18-30.79,10.59
	c-1.16,13.72-12.58,24.34-25.98,24.54c-12.81,0.19-24.18-9.19-26.46-22.13c0.18,2.56,1.07,18.61-8.66,25.98
	c-11.4,8.63-35.42,3.87-51-18.28c-9.2,8.92-23.32,7.76-29.83,0c-6.87-8.19-4.91-23.32,6.74-30.31
	C115.04,124.72,114.34,109.98,121.35,99.94z"/>
</svg>
