<?xml version="1.0" encoding="utf-8"?>
<!-- Generator: Adobe Illustrator 26.5.0, SVG Export Plug-In . SVG Version: 6.00 Build 0)  -->
<svg version="1.1" id="icons" xmlns="http://www.w3.org/2000/svg" xmlns:xlink="http://www.w3.org/1999/xlink" x="0px" y="0px"
	 viewBox="0 0 300 300" enable-background="new 0 0 300 300" xml:space="preserve">
<path fill="#CCCCCC" stroke="#999999" stroke-miterlimit="10" d="M22.39,49.09c11.15-15.95,32.92-14.4,38.01-14.03
	c15.15,1.08,25.66,8.82,29.82,12.28c3.35-5.23,11.01-15.34,23.97-19.3c20.28-6.19,45.47,5.16,60.22,29.24
	c3.99-3.56,14.07-11.48,25.73-9.94c22.06,2.92,39.71,38.39,26.31,57.89c-7.15,10.41-22.13,14.8-37.42,12.86
	c-1.41,16.67-15.28,29.58-31.57,29.82c-15.57,0.23-29.38-11.17-32.16-26.9c0.21,3.11,1.3,22.62-10.52,31.57
	c-13.85,10.49-43.05,4.7-61.98-22.22c-11.18,10.84-28.34,9.43-36.25,0c-8.34-9.95-5.97-28.34,8.19-36.84
	C14.71,79.21,13.86,61.29,22.39,49.09z"/>
<g>
	
		<radialGradient id="SVGID_1_" cx="112.2144" cy="138.4332" r="61.3265" gradientTransform="matrix(-0.1638 0.9865 -0.9865 -0.1638 292.4731 6.3154)" gradientUnits="userSpaceOnUse">
		<stop  offset="0" style="stop-color:#FFFFFF"/>
		<stop  offset="0.1164" style="stop-color:#F9F9F4"/>
		<stop  offset="1" style="stop-color:#CBCCA0"/>
	</radialGradient>
	<path fill="url(#SVGID_1_)" d="M128.55,152.52C93.48,146.7,69.78,113.56,75.6,78.5c3.64-21.94,17.97-39.43,36.79-48.03
		c-8.26,8.44-14.12,19.4-16.2,31.93c-5.39,32.48,16.57,63.19,49.05,68.58c20.7,3.44,40.7-4.25,53.86-18.68
		C188.33,140.17,159.17,157.61,128.55,152.52z"/>
	
		<radialGradient id="SVGID_00000031898336471363177500000012568000431426871174_" cx="145.8201" cy="52.2907" r="11.7757" gradientUnits="userSpaceOnUse">
		<stop  offset="0" style="stop-color:#FFFFFF"/>
		<stop  offset="0.1164" style="stop-color:#F9F9F4"/>
		<stop  offset="1" style="stop-color:#CBCCA0"/>
	</radialGradient>
	<polygon fill="url(#SVGID_00000031898336471363177500000012568000431426871174_)" points="157.74,56.25 148.63,55.5 145.11,63.93 
		143.01,55.04 133.9,54.29 141.71,49.54 139.61,40.66 146.53,46.61 154.33,41.87 150.81,50.29 	"/>
	
		<radialGradient id="SVGID_00000019660349839744203400000002747775596179350154_" cx="56.3088" cy="92.018" r="10.0634" gradientUnits="userSpaceOnUse">
		<stop  offset="0" style="stop-color:#FFFFFF"/>
		<stop  offset="0.1164" style="stop-color:#F9F9F4"/>
		<stop  offset="1" style="stop-color:#CBCCA0"/>
	</radialGradient>
	<polygon fill="url(#SVGID_00000019660349839744203400000002747775596179350154_)" points="66.49,95.4 58.71,94.76 55.7,101.96 
		53.91,94.37 46.13,93.73 52.79,89.67 51,82.08 56.92,87.16 63.58,83.11 60.57,90.31 	"/>
	
		<radialGradient id="SVGID_00000146493590721082795280000006664895335838590127_" cx="136.9073" cy="110.0147" r="8.8084" gradientUnits="userSpaceOnUse">
		<stop  offset="0" style="stop-color:#FFFFFF"/>
		<stop  offset="0.1164" style="stop-color:#F9F9F4"/>
		<stop  offset="1" style="stop-color:#CBCCA0"/>
	</radialGradient>
	<polygon fill="url(#SVGID_00000146493590721082795280000006664895335838590127_)" points="145.82,112.97 139.01,112.41 
		136.38,118.72 134.8,112.07 127.99,111.51 133.83,107.96 132.26,101.31 137.44,105.77 143.28,102.22 140.64,108.52 	"/>
</g>
<path fill="#CCCCCC" stroke="#999999" stroke-miterlimit="10" d="M21.3,103.15c9.95-14.24,29.39-12.86,33.94-12.53
	c13.53,0.96,22.91,7.88,26.63,10.96c2.99-4.67,9.83-13.7,21.41-17.23c18.11-5.52,40.6,4.6,53.78,26.11
	c3.57-3.18,12.56-10.25,22.97-8.88c19.69,2.61,35.46,34.28,23.5,51.69c-6.38,9.29-19.76,13.22-33.42,11.49
	c-1.26,14.89-13.65,26.41-28.19,26.63c-13.9,0.21-26.23-9.97-28.72-24.02c0.19,2.78,1.16,20.2-9.4,28.19
	c-12.37,9.37-38.44,4.2-55.35-19.84c-9.98,9.68-25.31,8.42-32.37,0c-7.45-8.89-5.33-25.31,7.31-32.89
	C14.45,130.04,13.69,114.04,21.3,103.15z"/>
<ellipse fill="none" stroke="#0071BC" stroke-width="2" stroke-miterlimit="10" cx="45.08" cy="237.8" rx="0.41" ry="20.64"/>
<ellipse fill="none" stroke="#0071BC" stroke-width="2" stroke-miterlimit="10" cx="150.32" cy="235.18" rx="0.41" ry="20.64"/>
<ellipse fill="none" stroke="#0071BC" stroke-width="2" stroke-miterlimit="10" cx="49.6" cy="247.44" rx="0.41" ry="20.64"/>
<ellipse fill="none" stroke="#0071BC" stroke-width="2" stroke-miterlimit="10" cx="155.89" cy="235.18" rx="0.41" ry="20.64"/>
<ellipse fill="none" stroke="#6ACBDB" stroke-width="2" stroke-miterlimit="10" cx="44.9" cy="220.04" rx="0.41" ry="20.64"/>
<ellipse fill="none" stroke="#6ACBDB" stroke-width="2" stroke-miterlimit="10" cx="50.02" cy="240.68" rx="0.41" ry="20.64"/>
<ellipse fill="none" stroke="#0071BC" stroke-width="2" stroke-miterlimit="10" cx="260.93" cy="233.74" rx="0.41" ry="20.64"/>
<ellipse fill="none" stroke="#0071BC" stroke-width="2" stroke-miterlimit="10" cx="256.41" cy="243.39" rx="0.41" ry="20.64"/>
<ellipse fill="none" stroke="#6ACBDB" stroke-width="2" stroke-miterlimit="10" cx="261.12" cy="215.98" rx="0.41" ry="20.64"/>
<ellipse fill="none" stroke="#6ACBDB" stroke-width="2" stroke-miterlimit="10" cx="256" cy="236.63" rx="0.41" ry="20.64"/>
<ellipse fill="none" stroke="#6ACBDB" stroke-width="2" stroke-miterlimit="10" cx="155.25" cy="238.07" rx="0.41" ry="20.64"/>
<ellipse fill="none" stroke="#6ACBDB" stroke-width="2" stroke-miterlimit="10" cx="150.13" cy="238.07" rx="0.41" ry="20.64"/>
<path fill="#CCCCCC" stroke="#999999" stroke-miterlimit="10" d="M121.35,99.94c9.17-13.12,27.09-11.85,31.27-11.55
	c12.47,0.89,21.11,7.26,24.54,10.1c2.76-4.31,9.06-12.62,19.73-15.88c16.69-5.09,37.41,4.24,49.56,24.06
	c3.29-2.93,11.58-9.45,21.17-8.18c18.15,2.4,32.67,31.59,21.65,47.63c-5.88,8.56-18.21,12.18-30.79,10.59
	c-1.16,13.72-12.58,24.34-25.98,24.54c-12.81,0.19-24.18-9.19-26.46-22.13c0.18,2.56,1.07,18.61-8.66,25.98
	c-11.4,8.63-35.42,3.87-51-18.28c-9.2,8.92-23.32,7.76-29.83,0c-6.87-8.19-4.91-23.32,6.74-30.31
	C115.04,124.72,114.34,109.98,121.35,99.94z"/>
</svg>
