<?xml version="1.0" encoding="utf-8"?>
<!-- Generator: Adobe Illustrator 26.5.0, SVG Export Plug-In . SVG Version: 6.00 Build 0)  -->
<svg version="1.1" id="icons" xmlns="http://www.w3.org/2000/svg" xmlns:xlink="http://www.w3.org/1999/xlink" x="0px" y="0px"
	 viewBox="0 0 300 300" enable-background="new 0 0 300 300" xml:space="preserve">
<path fill="#CCCCCC" stroke="#999999" stroke-miterlimit="10" d="M22.39,49.09c11.15-15.95,32.92-14.4,38.01-14.03
	c15.15,1.08,25.66,8.82,29.82,12.28c3.35-5.23,11.01-15.34,23.97-19.3c20.28-6.19,45.47,5.16,60.22,29.24
	c3.99-3.56,14.07-11.48,25.73-9.94c22.06,2.92,39.71,38.39,26.31,57.89c-7.15,10.41-22.13,14.8-37.42,12.86
	c-1.41,16.67-15.28,29.58-31.57,29.82c-15.57,0.23-29.38-11.17-32.16-26.9c0.21,3.11,1.3,22.62-10.52,31.57
	c-13.85,10.49-43.05,4.7-61.98-22.22c-11.18,10.84-28.34,9.43-36.25,0c-8.34-9.95-5.97-28.34,8.19-36.84
	C14.71,79.21,13.86,61.29,22.39,49.09z"/>
<g>
	
		<radialGradient id="SVGID_1_" cx="108.8947" cy="134.049" r="61.3265" gradientTransform="matrix(-0.1638 0.9865 -0.9865 -0.1638 292.4731 6.3154)" gradientUnits="userSpaceOnUse">
		<stop  offset="0" style="stop-color:#FFFFFF"/>
		<stop  offset="0.1164" style="stop-color:#F9F9F4"/>
		<stop  offset="1" style="stop-color:#CBCCA0"/>
	</radialGradient>
	<path fill="url(#SVGID_1_)" d="M133.42,149.97c-35.07-5.82-58.77-38.96-52.95-74.02c3.64-21.94,17.97-39.43,36.79-48.03
		c-8.26,8.44-14.12,19.4-16.2,31.93c-5.39,32.48,16.57,63.19,49.05,68.58c20.7,3.44,40.7-4.25,53.86-18.68
		C193.2,137.61,164.03,155.05,133.42,149.97z"/>
	
		<radialGradient id="SVGID_00000110448744277494958610000006471099946675749043_" cx="150.6889" cy="49.7342" r="11.7757" gradientUnits="userSpaceOnUse">
		<stop  offset="0" style="stop-color:#FFFFFF"/>
		<stop  offset="0.1164" style="stop-color:#F9F9F4"/>
		<stop  offset="1" style="stop-color:#CBCCA0"/>
	</radialGradient>
	<polygon fill="url(#SVGID_00000110448744277494958610000006471099946675749043_)" points="162.6,53.69 153.5,52.94 149.98,61.37 
		147.88,52.48 138.77,51.73 146.58,46.99 144.47,38.1 151.4,44.05 159.2,39.31 155.68,47.74 	"/>
	
		<radialGradient id="SVGID_00000170996434306934651120000006856717251391554210_" cx="61.1776" cy="89.4615" r="10.0634" gradientUnits="userSpaceOnUse">
		<stop  offset="0" style="stop-color:#FFFFFF"/>
		<stop  offset="0.1164" style="stop-color:#F9F9F4"/>
		<stop  offset="1" style="stop-color:#CBCCA0"/>
	</radialGradient>
	<polygon fill="url(#SVGID_00000170996434306934651120000006856717251391554210_)" points="71.36,92.84 63.58,92.2 60.57,99.4 
		58.77,91.81 50.99,91.17 57.66,87.11 55.87,79.52 61.79,84.61 68.45,80.55 65.44,87.75 	"/>
	
		<radialGradient id="SVGID_00000034073772494893501620000017478573602407184522_" cx="141.7761" cy="107.4581" r="8.8084" gradientUnits="userSpaceOnUse">
		<stop  offset="0" style="stop-color:#FFFFFF"/>
		<stop  offset="0.1164" style="stop-color:#F9F9F4"/>
		<stop  offset="1" style="stop-color:#CBCCA0"/>
	</radialGradient>
	<polygon fill="url(#SVGID_00000034073772494893501620000017478573602407184522_)" points="150.69,110.42 143.88,109.86 
		141.24,116.16 139.67,109.51 132.86,108.95 138.7,105.4 137.13,98.76 142.31,103.21 148.14,99.66 145.51,105.96 	"/>
</g>
<path fill="#CCCCCC" stroke="#999999" stroke-miterlimit="10" d="M21.3,103.15c9.95-14.24,29.39-12.86,33.94-12.53
	c13.53,0.96,22.91,7.88,26.63,10.96c2.99-4.67,9.83-13.7,21.41-17.23c18.11-5.52,40.6,4.6,53.78,26.11
	c3.57-3.18,12.56-10.25,22.97-8.88c19.69,2.61,35.46,34.28,23.5,51.69c-6.38,9.29-19.76,13.22-33.42,11.49
	c-1.26,14.89-13.65,26.41-28.19,26.63c-13.9,0.21-26.23-9.97-28.72-24.02c0.19,2.78,1.16,20.2-9.4,28.19
	c-12.37,9.37-38.44,4.2-55.35-19.84c-9.98,9.68-25.31,8.42-32.37,0c-7.45-8.89-5.33-25.31,7.31-32.89
	C14.45,130.04,13.69,114.04,21.3,103.15z"/>
<ellipse fill="none" stroke="#0071BC" stroke-width="2" stroke-miterlimit="10" cx="262.95" cy="227.93" rx="0.41" ry="20.64"/>
<ellipse fill="none" stroke="#0071BC" stroke-width="2" stroke-miterlimit="10" cx="258.43" cy="237.58" rx="0.41" ry="20.64"/>
<ellipse fill="none" stroke="#6ACBDB" stroke-width="2" stroke-miterlimit="10" cx="263.13" cy="210.17" rx="0.41" ry="20.64"/>
<ellipse fill="none" stroke="#6ACBDB" stroke-width="2" stroke-miterlimit="10" cx="258.02" cy="230.82" rx="0.41" ry="20.64"/>
<ellipse fill="none" stroke="#0071BC" stroke-width="2" stroke-miterlimit="10" cx="37.05" cy="231.61" rx="0.41" ry="20.64"/>
<ellipse fill="none" stroke="#0071BC" stroke-width="2" stroke-miterlimit="10" cx="147.31" cy="233.05" rx="0.41" ry="20.64"/>
<ellipse fill="none" stroke="#0071BC" stroke-width="2" stroke-miterlimit="10" cx="41.57" cy="241.25" rx="0.41" ry="20.64"/>
<ellipse fill="none" stroke="#0071BC" stroke-width="2" stroke-miterlimit="10" cx="152.88" cy="233.05" rx="0.41" ry="20.64"/>
<ellipse fill="none" stroke="#6ACBDB" stroke-width="2" stroke-miterlimit="10" cx="36.87" cy="213.85" rx="0.41" ry="20.64"/>
<ellipse fill="none" stroke="#6ACBDB" stroke-width="2" stroke-miterlimit="10" cx="41.98" cy="234.49" rx="0.41" ry="20.64"/>
<ellipse fill="none" stroke="#6ACBDB" stroke-width="2" stroke-miterlimit="10" cx="152.24" cy="235.93" rx="0.41" ry="20.64"/>
<ellipse fill="none" stroke="#6ACBDB" stroke-width="2" stroke-miterlimit="10" cx="147.12" cy="235.93" rx="0.41" ry="20.64"/>
<path fill="#CCCCCC" stroke="#999999" stroke-miterlimit="10" d="M121.35,99.94c9.17-13.12,27.09-11.85,31.27-11.55
	c12.47,0.89,21.11,7.26,24.54,10.1c2.76-4.31,9.06-12.62,19.73-15.88c16.69-5.09,37.41,4.24,49.56,24.06
	c3.29-2.93,11.58-9.45,21.17-8.18c18.15,2.4,32.67,31.59,21.65,47.63c-5.88,8.56-18.21,12.18-30.79,10.59
	c-1.16,13.72-12.58,24.34-25.98,24.54c-12.81,0.19-24.18-9.19-26.46-22.13c0.18,2.56,1.07,18.61-8.66,25.98
	c-11.4,8.63-35.42,3.87-51-18.28c-9.2,8.92-23.32,7.76-29.83,0c-6.87-8.19-4.91-23.32,6.74-30.31
	C115.04,124.72,114.34,109.98,121.35,99.94z"/>
</svg>
