<?xml version="1.0" encoding="utf-8"?>
<!-- Generator: Adobe Illustrator 26.5.0, SVG Export Plug-In . SVG Version: 6.00 Build 0)  -->
<svg version="1.1" xmlns="http://www.w3.org/2000/svg" xmlns:xlink="http://www.w3.org/1999/xlink" x="0px" y="0px"
	 viewBox="0 0 300 300" enable-background="new 0 0 300 300" xml:space="preserve">
<g id="bright_sun">
</g>
<g id="sun">
</g>
<g id="Moon">
	<g>
		
			<radialGradient id="SVGID_1_" cx="100.9921" cy="143.5061" r="61.3265" gradientTransform="matrix(-0.1638 0.9865 -0.9865 -0.1638 292.4731 6.3154)" gradientUnits="userSpaceOnUse">
			<stop  offset="0" style="stop-color:#FFFFFF"/>
			<stop  offset="0.1164" style="stop-color:#F9F9F4"/>
			<stop  offset="1" style="stop-color:#CBCCA0"/>
		</radialGradient>
		<path fill="url(#SVGID_1_)" d="M125.38,140.62c-35.07-5.82-58.77-38.96-52.95-74.02c3.64-21.94,17.97-39.43,36.79-48.03
			c-8.26,8.44-14.12,19.4-16.2,31.93c-5.39,32.48,16.57,63.19,49.05,68.58c20.7,3.44,40.7-4.25,53.86-18.68
			C185.17,128.27,156,145.71,125.38,140.62z"/>
		
			<radialGradient id="SVGID_00000125600154766710074720000007449737514371444132_" cx="142.6544" cy="40.3889" r="11.7757" gradientUnits="userSpaceOnUse">
			<stop  offset="0" style="stop-color:#FFFFFF"/>
			<stop  offset="0.1164" style="stop-color:#F9F9F4"/>
			<stop  offset="1" style="stop-color:#CBCCA0"/>
		</radialGradient>
		<polygon fill="url(#SVGID_00000125600154766710074720000007449737514371444132_)" points="154.57,44.34 145.47,43.6 141.94,52.02 
			139.84,43.14 130.74,42.39 138.54,37.64 136.44,28.75 143.37,34.71 151.17,29.96 147.64,38.39 		"/>
		
			<radialGradient id="SVGID_00000097495007786530715650000002845259743435356302_" cx="53.1431" cy="80.1163" r="10.0634" gradientUnits="userSpaceOnUse">
			<stop  offset="0" style="stop-color:#FFFFFF"/>
			<stop  offset="0.1164" style="stop-color:#F9F9F4"/>
			<stop  offset="1" style="stop-color:#CBCCA0"/>
		</radialGradient>
		<polygon fill="url(#SVGID_00000097495007786530715650000002845259743435356302_)" points="63.33,83.5 55.55,82.86 52.54,90.06 
			50.74,82.46 42.96,81.82 49.63,77.77 47.83,70.17 53.75,75.26 60.42,71.21 57.41,78.41 		"/>
		
			<radialGradient id="SVGID_00000119091451937382273970000017916217611159459767_" cx="133.7416" cy="98.1129" r="8.8084" gradientUnits="userSpaceOnUse">
			<stop  offset="0" style="stop-color:#FFFFFF"/>
			<stop  offset="0.1164" style="stop-color:#F9F9F4"/>
			<stop  offset="1" style="stop-color:#CBCCA0"/>
		</radialGradient>
		<polygon fill="url(#SVGID_00000119091451937382273970000017916217611159459767_)" points="142.65,101.07 135.85,100.51 
			133.21,106.82 131.64,100.17 124.83,99.61 130.67,96.06 129.09,89.41 134.27,93.86 140.11,90.31 137.47,96.62 		"/>
	</g>
	<path fill="#CCCCCC" stroke="#999999" stroke-miterlimit="10" d="M22.79,50.22c13.95-19.96,41.2-18.02,47.57-17.56
		c18.96,1.35,32.11,11.04,37.32,15.37c4.19-6.55,13.78-19.2,30.01-24.15c25.38-7.74,56.91,6.45,75.38,36.59
		c5-4.45,17.61-14.37,32.2-12.44c27.6,3.65,49.7,48.05,32.93,72.45c-8.95,13.02-27.7,18.53-46.84,16.1
		c-1.76,20.86-19.13,37.02-39.52,37.32c-19.49,0.29-36.77-13.98-40.25-33.66c0.27,3.89,1.63,28.31-13.17,39.52
		c-17.34,13.13-53.88,5.89-77.57-27.81c-13.99,13.57-35.47,11.81-45.37,0c-10.44-12.46-7.47-35.47,10.25-46.11
		C13.19,87.92,12.12,65.49,22.79,50.22z"/>
</g>
<g id="Mist">
	<g>
		<path fill="none" stroke="#999999" stroke-width="5" stroke-miterlimit="10" d="M16.74,199.39c3.01-1.98,22.68-14.43,44.91-7.13
			c8.32,2.73,10.6,7.96,19.25,12.12c20.68,9.96,42.4,1.13,43.49,0.71c15.81-6.11,15.92-15,27.09-15.68
			c13.94-0.85,16.34,12.85,32.08,14.97c19.48,2.63,26.76-16.88,44.91-13.54c14.57,2.68,16.99,16.55,29.94,17.11
			c11.25,0.48,20.84-9.5,27.09-17.82"/>
		<path fill="none" stroke="#999999" stroke-width="5" stroke-miterlimit="10" d="M20,243.74c3.01-1.98,22.68-14.43,44.91-7.13
			c8.32,2.73,10.6,7.96,19.25,12.12c20.68,9.96,42.4,1.13,43.49,0.71c15.81-6.11,15.92-15,27.09-15.68
			c13.94-0.85,16.34,12.85,32.08,14.97c19.48,2.63,26.76-16.88,44.91-13.54c14.57,2.68,16.99,16.55,29.94,17.11
			c11.25,0.48,20.84-9.5,27.09-17.82"/>
		<path fill="none" stroke="#999999" stroke-width="5" stroke-miterlimit="10" d="M135.44,220.96c-1.33-0.87-9.98-6.35-19.76-3.14
			c-3.66,1.2-4.66,3.5-8.47,5.33c-9.1,4.38-18.65,0.5-19.13,0.31c-6.95-2.69-7-6.6-11.92-6.9c-6.13-0.37-7.19,5.65-14.11,6.59
			c-8.57,1.16-11.77-7.43-19.76-5.96c-6.41,1.18-7.48,7.28-13.17,7.53c-4.95,0.21-9.17-4.18-11.92-7.84"/>
		<path fill="none" stroke="#999999" stroke-width="5" stroke-miterlimit="10" d="M148.21,220.96c1.33-0.87,9.98-6.35,19.76-3.14
			c3.66,1.2,4.66,3.5,8.47,5.33c9.1,4.38,18.65,0.5,19.13,0.31c6.95-2.69,7-6.6,11.92-6.9c6.13-0.37,7.19,5.65,14.11,6.59
			c8.57,1.16,11.77-7.43,19.76-5.96c6.41,1.18,7.48,7.28,13.17,7.53c4.95,0.21,9.17-4.18,11.92-7.84"/>
	</g>
</g>
<g id="Partly_cloudy">
</g>
</svg>
