<?xml version="1.0" encoding="utf-8"?>
<!-- Generator: Adobe Illustrator 26.5.0, SVG Export Plug-In . SVG Version: 6.00 Build 0)  -->
<svg version="1.1" id="icons" xmlns="http://www.w3.org/2000/svg" xmlns:xlink="http://www.w3.org/1999/xlink" x="0px" y="0px"
	 viewBox="0 0 300 300" enable-background="new 0 0 300 300" xml:space="preserve">
<path fill="#CCCCCC" stroke="#999999" stroke-miterlimit="10" d="M22.39,49.09c11.15-15.95,32.92-14.4,38.01-14.03
	c15.15,1.08,25.66,8.82,29.82,12.28c3.35-5.23,11.01-15.34,23.97-19.3c20.28-6.19,45.47,5.16,60.22,29.24
	c3.99-3.56,14.07-11.48,25.73-9.94c22.06,2.92,39.71,38.39,26.31,57.89c-7.15,10.41-22.13,14.8-37.42,12.86
	c-1.41,16.67-15.28,29.58-31.57,29.82c-15.57,0.23-29.38-11.17-32.16-26.9c0.21,3.11,1.3,22.62-10.52,31.57
	c-13.85,10.49-43.05,4.7-61.98-22.22c-11.18,10.84-28.34,9.43-36.25,0c-8.34-9.95-5.97-28.34,8.19-36.84
	C14.71,79.21,13.86,61.29,22.39,49.09z"/>
<g>
	
		<radialGradient id="SVGID_1_" cx="109.3171" cy="136.5923" r="61.3265" gradientTransform="matrix(-0.1638 0.9865 -0.9865 -0.1638 292.4731 6.3154)" gradientUnits="userSpaceOnUse">
		<stop  offset="0" style="stop-color:#FFFFFF"/>
		<stop  offset="0.1164" style="stop-color:#F9F9F4"/>
		<stop  offset="1" style="stop-color:#CBCCA0"/>
	</radialGradient>
	<path fill="url(#SVGID_1_)" d="M130.84,149.97c-35.07-5.82-58.77-38.96-52.95-74.02c3.64-21.94,17.97-39.43,36.79-48.03
		c-8.26,8.44-14.12,19.4-16.2,31.93c-5.39,32.48,16.57,63.19,49.05,68.58c20.7,3.44,40.7-4.25,53.86-18.68
		C190.62,137.61,161.46,155.05,130.84,149.97z"/>
	
		<radialGradient id="SVGID_00000165236447998523364800000002779234820297061030_" cx="148.1109" cy="49.7342" r="11.7757" gradientUnits="userSpaceOnUse">
		<stop  offset="0" style="stop-color:#FFFFFF"/>
		<stop  offset="0.1164" style="stop-color:#F9F9F4"/>
		<stop  offset="1" style="stop-color:#CBCCA0"/>
	</radialGradient>
	<polygon fill="url(#SVGID_00000165236447998523364800000002779234820297061030_)" points="160.03,53.69 150.92,52.94 147.4,61.37 
		145.3,52.48 136.2,51.73 144,46.99 141.9,38.1 148.82,44.05 156.62,39.31 153.1,47.74 	"/>
	
		<radialGradient id="SVGID_00000009548507236177001480000011750348768924350624_" cx="58.5995" cy="89.4615" r="10.0634" gradientUnits="userSpaceOnUse">
		<stop  offset="0" style="stop-color:#FFFFFF"/>
		<stop  offset="0.1164" style="stop-color:#F9F9F4"/>
		<stop  offset="1" style="stop-color:#CBCCA0"/>
	</radialGradient>
	<polygon fill="url(#SVGID_00000009548507236177001480000011750348768924350624_)" points="68.78,92.84 61,92.2 57.99,99.4 
		56.2,91.81 48.42,91.17 55.09,87.11 53.29,79.52 59.21,84.61 65.88,80.55 62.86,87.75 	"/>
	
		<radialGradient id="SVGID_00000135669863443165506830000016076640856913028738_" cx="139.198" cy="107.4581" r="8.8084" gradientUnits="userSpaceOnUse">
		<stop  offset="0" style="stop-color:#FFFFFF"/>
		<stop  offset="0.1164" style="stop-color:#F9F9F4"/>
		<stop  offset="1" style="stop-color:#CBCCA0"/>
	</radialGradient>
	<polygon fill="url(#SVGID_00000135669863443165506830000016076640856913028738_)" points="148.11,110.42 141.3,109.86 
		138.67,116.16 137.09,109.51 130.29,108.95 136.12,105.4 134.55,98.76 139.73,103.21 145.57,99.66 142.93,105.96 	"/>
</g>
<path fill="#CCCCCC" stroke="#999999" stroke-miterlimit="10" d="M21.3,103.15c9.95-14.24,29.39-12.86,33.94-12.53
	c13.53,0.96,22.91,7.88,26.63,10.96c2.99-4.67,9.83-13.7,21.41-17.23c18.11-5.52,40.6,4.6,53.78,26.11
	c3.57-3.18,12.56-10.25,22.97-8.88c19.69,2.61,35.46,34.28,23.5,51.69c-6.38,9.29-19.76,13.22-33.42,11.49
	c-1.26,14.89-13.65,26.41-28.19,26.63c-13.9,0.21-26.23-9.97-28.72-24.02c0.19,2.78,1.16,20.2-9.4,28.19
	c-12.37,9.37-38.44,4.2-55.35-19.84c-9.98,9.68-25.31,8.42-32.37,0c-7.45-8.89-5.33-25.31,7.31-32.89
	C14.45,130.04,13.69,114.04,21.3,103.15z"/>
<g>
	<polygon fill="#E6E6E6" points="47.65,232.35 42.82,234.91 42.46,240.37 37.44,238.19 32.95,241.3 31.53,236.02 26.29,234.45 
		29.53,230.05 27.49,224.98 32.95,224.76 35.65,220.01 39.22,224.15 44.62,223.29 43.61,228.66 	"/>
	<polygon fill="#E6E6E6" points="64.18,247.95 59.35,250.52 58.98,255.97 53.97,253.79 49.47,256.91 48.05,251.63 42.81,250.06 
		46.05,245.66 44.01,240.58 49.48,240.37 52.17,235.61 55.75,239.75 61.15,238.89 60.14,244.27 	"/>
	<polygon fill="#E6E6E6" points="147.11,240.82 142.28,243.38 141.92,248.83 136.9,246.66 132.41,249.77 130.98,244.49 
		125.75,242.92 128.99,238.52 126.95,233.44 132.41,233.23 135.11,228.47 138.68,232.61 144.08,231.76 143.07,237.13 	"/>
	<polygon fill="#E6E6E6" points="168.48,240.82 163.64,243.38 163.28,248.83 158.27,246.66 153.77,249.77 152.35,244.49 
		147.11,242.92 150.35,238.52 148.31,233.44 153.78,233.23 156.47,228.47 160.05,232.61 165.45,231.76 164.44,237.13 	"/>
	<polygon fill="#E6E6E6" points="246.57,235.2 251.4,237.77 251.76,243.22 256.78,241.04 261.27,244.16 262.7,238.88 267.93,237.31 
		264.69,232.91 266.73,227.83 261.27,227.62 258.57,222.86 255,227 249.6,226.14 250.61,231.52 	"/>
	<polygon fill="#E6E6E6" points="230.05,250.81 234.88,253.37 235.24,258.83 240.26,256.65 244.75,259.77 246.17,254.49 
		251.41,252.92 248.17,248.51 250.21,243.44 244.74,243.23 242.05,238.47 238.48,242.61 233.08,241.75 234.08,247.12 	"/>
</g>
<g>
	<polygon fill="#E6E6E6" points="47.65,256.44 42.82,259.01 42.46,264.46 37.44,262.28 32.95,265.4 31.53,260.12 26.29,258.55 
		29.53,254.15 27.49,249.07 32.95,248.86 35.65,244.1 39.22,248.24 44.62,247.38 43.61,252.76 	"/>
	<polygon fill="#E6E6E6" points="64.18,272.05 59.35,274.61 58.98,280.07 53.97,277.89 49.47,281.01 48.05,275.73 42.81,274.16 
		46.05,269.75 44.01,264.68 49.48,264.47 52.17,259.71 55.75,263.85 61.15,262.99 60.14,268.36 	"/>
	<polygon fill="#E6E6E6" points="147.11,264.91 142.28,267.47 141.92,272.93 136.9,270.75 132.41,273.87 130.98,268.59 
		125.75,267.02 128.99,262.61 126.95,257.54 132.41,257.33 135.11,252.57 138.68,256.71 144.08,255.85 143.07,261.23 	"/>
	<polygon fill="#E6E6E6" points="168.48,264.91 163.64,267.47 163.28,272.93 158.27,270.75 153.77,273.87 152.35,268.59 
		147.11,267.02 150.35,262.61 148.31,257.54 153.78,257.33 156.47,252.57 160.05,256.71 165.45,255.85 164.44,261.23 	"/>
	<polygon fill="#E6E6E6" points="246.57,259.3 251.4,261.86 251.76,267.32 256.78,265.14 261.27,268.26 262.7,262.98 267.93,261.41 
		264.69,257 266.73,251.93 261.27,251.72 258.57,246.96 255,251.1 249.6,250.24 250.61,255.61 	"/>
	<polygon fill="#E6E6E6" points="230.05,274.91 234.88,277.47 235.24,282.92 240.26,280.74 244.75,283.86 246.17,278.58 
		251.41,277.01 248.17,272.61 250.21,267.53 244.74,267.32 242.05,262.56 238.48,266.7 233.08,265.84 234.08,271.22 	"/>
</g>
<g>
	<polygon fill="#E6E6E6" points="46.81,209.71 41.98,212.27 41.61,217.72 36.6,215.55 32.1,218.66 30.68,213.38 25.44,211.81 
		28.68,207.41 26.64,202.33 32.11,202.12 34.8,197.36 38.38,201.5 43.78,200.64 42.77,206.02 	"/>
	<polygon fill="#E6E6E6" points="63.33,225.31 58.5,227.87 58.14,233.33 53.12,231.15 48.63,234.27 47.2,228.99 41.97,227.42 
		45.21,223.01 43.17,217.94 48.63,217.73 51.33,212.97 54.9,217.11 60.3,216.25 59.29,221.63 	"/>
	<polygon fill="#E6E6E6" points="146.27,218.18 141.43,220.74 141.07,226.19 136.06,224.01 131.56,227.13 130.14,221.85 
		124.9,220.28 128.14,215.88 126.1,210.8 131.57,210.59 134.26,205.83 137.84,209.97 143.24,209.11 142.23,214.49 	"/>
	<polygon fill="#E6E6E6" points="167.63,218.18 162.8,220.74 162.44,226.19 157.42,224.01 152.93,227.13 151.5,221.85 
		146.27,220.28 149.51,215.88 147.47,210.8 152.93,210.59 155.63,205.83 159.2,209.97 164.6,209.11 163.59,214.49 	"/>
	<polygon fill="#E6E6E6" points="245.72,212.56 250.56,215.13 250.92,220.58 255.94,218.4 260.43,221.52 261.85,216.24 
		267.09,214.67 263.85,210.27 265.89,205.19 260.42,204.98 257.73,200.22 254.16,204.36 248.75,203.5 249.76,208.88 	"/>
	<polygon fill="#E6E6E6" points="229.2,228.17 234.03,230.73 234.4,236.19 239.41,234.01 243.9,237.12 245.33,231.85 250.56,230.28 
		247.32,225.87 249.36,220.8 243.9,220.58 241.2,215.83 237.63,219.97 232.23,219.11 233.24,224.48 	"/>
</g>
<g>
	<polygon fill="#FFFF00" stroke="#FFFF00" stroke-miterlimit="10" points="153.72,170.68 137.8,198.04 143.7,194.97 158.18,187.43 
		134.73,225.96 159.3,214.51 130.27,259.18 180.52,202.17 151.2,211.02 175.25,173.83 155.95,182.97 174.37,151.14 	"/>
	<polygon fill="#F4B321" stroke="#FFFF00" stroke-miterlimit="10" points="154.54,171.33 146.3,191.29 159.28,186.69 152.03,200.09 
		139.88,221.3 160.98,216.2 139.88,247.83 166.12,212.79 146.52,215.94 166.12,181.25 154.68,183.76 166.96,159.89 	"/>
</g>
<path fill="#CCCCCC" stroke="#999999" stroke-miterlimit="10" d="M121.35,99.94c9.17-13.12,27.09-11.85,31.27-11.55
	c12.47,0.89,21.11,7.26,24.54,10.1c2.76-4.31,9.06-12.62,19.73-15.88c16.69-5.09,37.41,4.24,49.56,24.06
	c3.29-2.93,11.58-9.45,21.17-8.18c18.15,2.4,32.67,31.59,21.65,47.63c-5.88,8.56-18.21,12.18-30.79,10.59
	c-1.16,13.72-12.58,24.34-25.98,24.54c-12.81,0.19-24.18-9.19-26.46-22.13c0.18,2.56,1.07,18.61-8.66,25.98
	c-11.4,8.63-35.42,3.87-51-18.28c-9.2,8.92-23.32,7.76-29.83,0c-6.87-8.19-4.91-23.32,6.74-30.31
	C115.04,124.72,114.34,109.98,121.35,99.94z"/>
</svg>
