<?xml version="1.0" encoding="utf-8"?>
<!-- Generator: Adobe Illustrator 26.5.0, SVG Export Plug-In . SVG Version: 6.00 Build 0)  -->
<svg version="1.1" id="icons" xmlns="http://www.w3.org/2000/svg" xmlns:xlink="http://www.w3.org/1999/xlink" x="0px" y="0px"
	 viewBox="0 0 300 300" enable-background="new 0 0 300 300" xml:space="preserve">
<path fill="#CCCCCC" stroke="#999999" stroke-miterlimit="10" d="M22.39,49.09c11.15-15.95,32.92-14.4,38.01-14.03
	c15.15,1.08,25.66,8.82,29.82,12.28c3.35-5.23,11.01-15.34,23.97-19.3c20.28-6.19,45.47,5.16,60.22,29.24
	c3.99-3.56,14.07-11.48,25.73-9.94c22.06,2.92,39.71,38.39,26.31,57.89c-7.15,10.41-22.13,14.8-37.42,12.86
	c-1.41,16.67-15.28,29.58-31.57,29.82c-15.57,0.23-29.38-11.17-32.16-26.9c0.21,3.11,1.3,22.62-10.52,31.57
	c-13.85,10.49-43.05,4.7-61.98-22.22c-11.18,10.84-28.34,9.43-36.25,0c-8.34-9.95-5.97-28.34,8.19-36.84
	C14.71,79.21,13.86,61.29,22.39,49.09z"/>
<radialGradient id="SVGID_1_" cx="119.1089" cy="102.7028" r="69.473" gradientUnits="userSpaceOnUse">
	<stop  offset="0" style="stop-color:#FCEE21"/>
	<stop  offset="0.2429" style="stop-color:#FCEB21"/>
	<stop  offset="0.444" style="stop-color:#FBE021"/>
	<stop  offset="0.6302" style="stop-color:#FACF20"/>
	<stop  offset="0.8074" style="stop-color:#F9B71F"/>
	<stop  offset="0.9768" style="stop-color:#F7981E"/>
	<stop  offset="1" style="stop-color:#F7931E"/>
</radialGradient>
<circle fill="url(#SVGID_1_)" cx="119.11" cy="102.7" r="69.47"/>
<path fill="#CCCCCC" stroke="#999999" stroke-miterlimit="10" d="M21.3,103.15c9.95-14.24,29.39-12.86,33.94-12.53
	c13.53,0.96,22.91,7.88,26.63,10.96c2.99-4.67,9.83-13.7,21.41-17.23c18.11-5.52,40.6,4.6,53.78,26.11
	c3.57-3.18,12.56-10.25,22.97-8.88c19.69,2.61,35.46,34.28,23.5,51.69c-6.38,9.29-19.76,13.22-33.42,11.49
	c-1.26,14.89-13.65,26.41-28.19,26.63c-13.9,0.21-26.23-9.97-28.72-24.02c0.19,2.78,1.16,20.2-9.4,28.19
	c-12.37,9.37-38.44,4.2-55.35-19.84c-9.98,9.68-25.31,8.42-32.37,0c-7.45-8.89-5.33-25.31,7.31-32.89
	C14.45,130.04,13.69,114.04,21.3,103.15z"/>
<g>
	<polygon fill="#E6E6E6" points="55.23,220.79 50.4,223.36 50.03,228.81 45.02,226.63 40.52,229.75 39.1,224.47 33.86,222.9 
		37.1,218.5 35.06,213.42 40.53,213.21 43.22,208.45 46.8,212.59 52.2,211.73 51.19,217.11 	"/>
	<polygon fill="#E6E6E6" points="71.75,236.4 66.92,238.96 66.56,244.42 61.54,242.24 57.05,245.36 55.63,240.08 50.39,238.51 
		53.63,234.1 51.59,229.03 57.05,228.82 59.75,224.06 63.32,228.2 68.72,227.34 67.71,232.71 	"/>
	<polygon fill="#E6E6E6" points="154.69,229.26 149.86,231.83 149.49,237.28 144.48,235.1 139.98,238.22 138.56,232.94 
		133.32,231.37 136.56,226.97 134.52,221.89 139.99,221.68 142.68,216.92 146.26,221.06 151.66,220.2 150.65,225.58 	"/>
	<polygon fill="#E6E6E6" points="176.05,229.26 171.22,231.83 170.86,237.28 165.84,235.1 161.35,238.22 159.92,232.94 
		154.69,231.37 157.93,226.97 155.89,221.89 161.35,221.68 164.05,216.92 167.62,221.06 173.02,220.2 172.01,225.58 	"/>
	<polygon fill="#E6E6E6" points="254.14,223.65 258.98,226.21 259.34,231.67 264.36,229.49 268.85,232.61 270.27,227.33 
		275.51,225.76 272.27,221.35 274.31,216.28 268.84,216.07 266.15,211.31 262.58,215.45 257.18,214.59 258.18,219.96 	"/>
	<polygon fill="#E6E6E6" points="237.62,239.26 242.45,241.82 242.82,247.27 247.83,245.1 252.32,248.21 253.75,242.93 
		258.99,241.36 255.74,236.96 257.78,231.89 252.32,231.67 249.62,226.91 246.05,231.05 240.65,230.2 241.66,235.57 	"/>
</g>
<g>
	<polygon fill="#E6E6E6" points="55.23,244.89 50.4,247.45 50.03,252.91 45.02,250.73 40.52,253.85 39.1,248.57 33.86,247 
		37.1,242.59 35.06,237.52 40.53,237.31 43.22,232.55 46.8,236.69 52.2,235.83 51.19,241.2 	"/>
	<polygon fill="#E6E6E6" points="71.75,260.5 66.92,263.06 66.56,268.51 61.54,266.33 57.05,269.45 55.63,264.17 50.39,262.6 
		53.63,258.2 51.59,253.12 57.05,252.91 59.75,248.15 63.32,252.29 68.72,251.43 67.71,256.81 	"/>
	<polygon fill="#E6E6E6" points="154.69,253.36 149.86,255.92 149.49,261.38 144.48,259.2 139.98,262.32 138.56,257.04 
		133.32,255.47 136.56,251.06 134.52,245.99 139.99,245.77 142.68,241.02 146.26,245.16 151.66,244.3 150.65,249.67 	"/>
	<polygon fill="#E6E6E6" points="176.05,253.36 171.22,255.92 170.86,261.38 165.84,259.2 161.35,262.32 159.92,257.04 
		154.69,255.47 157.93,251.06 155.89,245.99 161.35,245.77 164.05,241.02 167.62,245.16 173.02,244.3 172.01,249.67 	"/>
	<polygon fill="#E6E6E6" points="254.14,247.75 258.98,250.31 259.34,255.77 264.36,253.59 268.85,256.7 270.27,251.42 
		275.51,249.85 272.27,245.45 274.31,240.38 268.84,240.16 266.15,235.4 262.58,239.54 257.18,238.69 258.18,244.06 	"/>
	<polygon fill="#E6E6E6" points="237.62,263.35 242.45,265.91 242.82,271.37 247.83,269.19 252.32,272.31 253.75,267.03 
		258.99,265.46 255.74,261.05 257.78,255.98 252.32,255.77 249.62,251.01 246.05,255.15 240.65,254.29 241.66,259.67 	"/>
</g>
<path fill="#CCCCCC" stroke="#999999" stroke-miterlimit="10" d="M121.35,99.94c9.17-13.12,27.09-11.85,31.27-11.55
	c12.47,0.89,21.11,7.26,24.54,10.1c2.76-4.31,9.06-12.62,19.73-15.88c16.69-5.09,37.41,4.24,49.56,24.06
	c3.29-2.93,11.58-9.45,21.17-8.18c18.15,2.4,32.67,31.59,21.65,47.63c-5.88,8.56-18.21,12.18-30.79,10.59
	c-1.16,13.72-12.58,24.34-25.98,24.54c-12.81,0.19-24.18-9.19-26.46-22.13c0.18,2.56,1.07,18.61-8.66,25.98
	c-11.4,8.63-35.42,3.87-51-18.28c-9.2,8.92-23.32,7.76-29.83,0c-6.87-8.19-4.91-23.32,6.74-30.31
	C115.04,124.72,114.34,109.98,121.35,99.94z"/>
</svg>
