<?xml version="1.0" encoding="utf-8"?>
<!-- Generator: Adobe Illustrator 26.5.0, SVG Export Plug-In . SVG Version: 6.00 Build 0)  -->
<svg version="1.1" xmlns="http://www.w3.org/2000/svg" xmlns:xlink="http://www.w3.org/1999/xlink" x="0px" y="0px"
	 viewBox="0 0 300 300" enable-background="new 0 0 300 300" xml:space="preserve">
<g id="bright_sun">
</g>
<g id="sun">
</g>
<g id="Moon">
	<g>
		
			<radialGradient id="SVGID_1_" cx="126.094" cy="123.2393" r="88.2668" gradientTransform="matrix(-0.1638 0.9865 -0.9865 -0.1638 292.4731 6.3154)" gradientUnits="userSpaceOnUse">
			<stop  offset="0" style="stop-color:#FFFFFF"/>
			<stop  offset="0.1164" style="stop-color:#F9F9F4"/>
			<stop  offset="1" style="stop-color:#CBCCA0"/>
		</radialGradient>
		<path fill="url(#SVGID_1_)" d="M137.32,194.27c-50.48-8.38-84.59-56.08-76.21-106.54c5.24-31.57,25.87-56.75,52.95-69.13
			c-11.9,12.14-20.33,27.92-23.32,45.96c-7.76,46.75,23.85,90.95,70.59,98.71c29.8,4.95,58.58-6.11,77.53-26.89
			C223.36,176.49,181.39,201.59,137.32,194.27z"/>
		
			<radialGradient id="SVGID_00000117664410779354404110000003010740112093878446_" cx="162.1785" cy="50.0033" r="16.9487" gradientUnits="userSpaceOnUse">
			<stop  offset="0" style="stop-color:#FFFFFF"/>
			<stop  offset="0.1164" style="stop-color:#F9F9F4"/>
			<stop  offset="1" style="stop-color:#CBCCA0"/>
		</radialGradient>
		<polygon fill="url(#SVGID_00000117664410779354404110000003010740112093878446_)" points="179.33,55.7 166.23,54.62 161.16,66.75 
			158.13,53.96 145.03,52.88 156.26,46.05 153.23,33.26 163.2,41.83 174.43,35 169.36,47.13 		"/>
		
			<radialGradient id="SVGID_00000016763712850577664290000012840014008740254874_" cx="33.3454" cy="107.1827" r="14.4842" gradientUnits="userSpaceOnUse">
			<stop  offset="0" style="stop-color:#FFFFFF"/>
			<stop  offset="0.1164" style="stop-color:#F9F9F4"/>
			<stop  offset="1" style="stop-color:#CBCCA0"/>
		</radialGradient>
		<polygon fill="url(#SVGID_00000016763712850577664290000012840014008740254874_)" points="48,112.05 36.81,111.13 32.47,121.49 
			29.89,110.56 18.69,109.64 28.29,103.8 25.7,92.87 34.22,100.2 43.82,94.36 39.48,104.72 		"/>
		
			<radialGradient id="SVGID_00000115482088194433606160000003571001776143543724_" cx="149.3503" cy="133.0851" r="12.6779" gradientUnits="userSpaceOnUse">
			<stop  offset="0" style="stop-color:#FFFFFF"/>
			<stop  offset="0.1164" style="stop-color:#F9F9F4"/>
			<stop  offset="1" style="stop-color:#CBCCA0"/>
		</radialGradient>
		<polygon fill="url(#SVGID_00000115482088194433606160000003571001776143543724_)" points="162.18,137.34 152.38,136.54 
			148.59,145.61 146.32,136.04 136.52,135.24 144.92,130.13 142.66,120.56 150.12,126.97 158.52,121.86 154.72,130.93 		"/>
	</g>
	<path fill="#CCCCCC" stroke="#999999" stroke-miterlimit="10" d="M19.2,84.59c15-21.46,44.29-19.37,51.13-18.88
		c20.38,1.45,34.52,11.87,40.12,16.52c4.51-7.04,14.82-20.64,32.25-25.96c27.29-8.32,61.17,6.94,81.03,39.33
		c5.37-4.79,18.93-15.45,34.61-13.37c29.67,3.93,53.42,51.64,35.4,77.88c-9.62,14-29.78,19.92-50.35,17.31
		c-1.89,22.43-20.56,39.8-42.48,40.12c-20.95,0.31-39.53-15.03-43.27-36.19c0.29,4.19,1.75,30.43-14.16,42.48
		c-18.64,14.11-57.92,6.33-83.39-29.89c-15.04,14.59-38.13,12.69-48.77,0c-11.22-13.39-8.03-38.13,11.01-49.56
		C8.88,125.11,7.73,101,19.2,84.59z"/>
</g>
<g id="Partly_cloudy">
</g>
</svg>
