<?xml version="1.0" encoding="utf-8"?>
<!-- Generator: Adobe Illustrator 26.5.0, SVG Export Plug-In . SVG Version: 6.00 Build 0)  -->
<svg version="1.1" xmlns="http://www.w3.org/2000/svg" xmlns:xlink="http://www.w3.org/1999/xlink" x="0px" y="0px"
	 viewBox="0 0 300 300" enable-background="new 0 0 300 300" xml:space="preserve">
<g id="bright_sun">
</g>
<g id="sun">
	<radialGradient id="SVGID_1_" cx="136.7501" cy="123.5033" r="69.473" gradientUnits="userSpaceOnUse">
		<stop  offset="0" style="stop-color:#FCEE21"/>
		<stop  offset="0.2429" style="stop-color:#FCEB21"/>
		<stop  offset="0.444" style="stop-color:#FBE021"/>
		<stop  offset="0.6302" style="stop-color:#FACF20"/>
		<stop  offset="0.8074" style="stop-color:#F9B71F"/>
		<stop  offset="0.9768" style="stop-color:#F7981E"/>
		<stop  offset="1" style="stop-color:#F7931E"/>
	</radialGradient>
	<circle fill="url(#SVGID_1_)" cx="136.75" cy="123.5" r="69.47"/>
</g>
<g id="Moon">
	<path fill="#CCCCCC" stroke="#999999" stroke-miterlimit="10" d="M16.77,84.59c15-21.46,44.29-19.37,51.13-18.88
		c20.38,1.45,34.52,11.87,40.12,16.52c4.51-7.04,14.82-20.64,32.25-25.96c27.29-8.32,61.17,6.94,81.03,39.33
		c5.37-4.79,18.93-15.45,34.61-13.37c29.67,3.93,53.42,51.64,35.4,77.88c-9.62,14-29.78,19.92-50.35,17.31
		c-1.89,22.43-20.56,39.8-42.48,40.12c-20.95,0.31-39.53-15.03-43.27-36.19c0.29,4.19,1.75,30.43-14.16,42.48
		c-18.64,14.11-57.92,6.33-83.39-29.89c-15.04,14.59-38.13,12.69-48.77,0c-11.22-13.39-8.03-38.13,11.01-49.56
		C6.45,125.11,5.3,101,16.77,84.59z"/>
</g>
<g id="Partly_cloudy">
</g>
</svg>
