<?xml version="1.0" encoding="utf-8"?>
<!-- Generator: Adobe Illustrator 26.5.0, SVG Export Plug-In . SVG Version: 6.00 Build 0)  -->
<svg version="1.1" xmlns="http://www.w3.org/2000/svg" xmlns:xlink="http://www.w3.org/1999/xlink" x="0px" y="0px"
	 viewBox="0 0 300 300" enable-background="new 0 0 300 300" xml:space="preserve">
<g id="bright_sun">
</g>
<g id="sun">
</g>
<g id="Moon">
	<g>
		
			<radialGradient id="SVGID_1_" cx="141.7875" cy="122.6573" r="88.2668" gradientTransform="matrix(-0.1638 0.9865 -0.9865 -0.1638 292.4731 6.3154)" gradientUnits="userSpaceOnUse">
			<stop  offset="0" style="stop-color:#FFFFFF"/>
			<stop  offset="0.1164" style="stop-color:#F9F9F4"/>
			<stop  offset="1" style="stop-color:#CBCCA0"/>
		</radialGradient>
		<path fill="url(#SVGID_1_)" d="M135.32,209.85c-50.48-8.38-84.59-56.08-76.21-106.54c5.24-31.57,25.87-56.75,52.95-69.13
			c-11.9,12.14-20.33,27.92-23.32,45.96c-7.76,46.75,23.85,90.95,70.59,98.71c29.8,4.95,58.58-6.11,77.53-26.89
			C221.37,192.06,179.39,217.17,135.32,209.85z"/>
		
			<radialGradient id="SVGID_00000065796522712707287210000003621738531046165947_" cx="160.1814" cy="65.5801" r="16.9487" gradientUnits="userSpaceOnUse">
			<stop  offset="0" style="stop-color:#FFFFFF"/>
			<stop  offset="0.1164" style="stop-color:#F9F9F4"/>
			<stop  offset="1" style="stop-color:#CBCCA0"/>
		</radialGradient>
		<polygon fill="url(#SVGID_00000065796522712707287210000003621738531046165947_)" points="177.33,71.27 164.23,70.2 159.16,82.33 
			156.13,69.53 143.03,68.46 154.26,61.63 151.24,48.83 161.2,57.41 172.44,50.58 167.36,62.7 		"/>
		
			<radialGradient id="SVGID_00000149371656571765457590000013130399500589706942_" cx="31.3483" cy="122.7595" r="14.4842" gradientUnits="userSpaceOnUse">
			<stop  offset="0" style="stop-color:#FFFFFF"/>
			<stop  offset="0.1164" style="stop-color:#F9F9F4"/>
			<stop  offset="1" style="stop-color:#CBCCA0"/>
		</radialGradient>
		<polygon fill="url(#SVGID_00000149371656571765457590000013130399500589706942_)" points="46,127.63 34.81,126.71 30.47,137.07 
			27.89,126.14 16.69,125.22 26.29,119.38 23.71,108.45 32.22,115.77 41.82,109.94 37.49,120.3 		"/>
		
			<radialGradient id="SVGID_00000150068566694375811330000004835335163369335951_" cx="147.3532" cy="148.6619" r="12.6779" gradientUnits="userSpaceOnUse">
			<stop  offset="0" style="stop-color:#FFFFFF"/>
			<stop  offset="0.1164" style="stop-color:#F9F9F4"/>
			<stop  offset="1" style="stop-color:#CBCCA0"/>
		</radialGradient>
		<polygon fill="url(#SVGID_00000150068566694375811330000004835335163369335951_)" points="160.18,152.92 150.38,152.12 
			146.59,161.19 144.32,151.62 134.53,150.81 142.93,145.7 140.66,136.14 148.12,142.55 156.52,137.44 152.73,146.51 		"/>
	</g>
	<path fill="#CCCCCC" stroke="#999999" stroke-miterlimit="10" d="M97.78,106.07c9.95-14.24,29.39-12.86,33.94-12.53
		c13.53,0.96,22.91,7.88,26.63,10.96c2.99-4.67,9.83-13.7,21.41-17.23c18.11-5.52,40.6,4.6,53.78,26.11
		c3.57-3.18,12.56-10.25,22.97-8.88c19.69,2.61,35.46,34.28,23.5,51.69c-6.38,9.29-19.76,13.22-33.42,11.49
		c-1.26,14.89-13.65,26.41-28.19,26.63c-13.9,0.21-26.23-9.97-28.72-24.02c0.19,2.78,1.16,20.2-9.4,28.19
		c-12.37,9.37-38.44,4.2-55.35-19.84c-9.98,9.68-25.31,8.42-32.37,0c-7.45-8.89-5.33-25.31,7.31-32.89
		C90.93,132.97,90.16,116.97,97.78,106.07z"/>
</g>
<g id="Partly_cloudy">
</g>
</svg>
