<?xml version="1.0" encoding="utf-8"?>
<!-- Generator: Adobe Illustrator 26.5.0, SVG Export Plug-In . SVG Version: 6.00 Build 0)  -->
<svg version="1.1" id="icons" xmlns="http://www.w3.org/2000/svg" xmlns:xlink="http://www.w3.org/1999/xlink" x="0px" y="0px"
	 viewBox="0 0 300 300" enable-background="new 0 0 300 300" xml:space="preserve">
<path fill="#CCCCCC" stroke="#999999" stroke-miterlimit="10" d="M22.39,49.09c11.15-15.95,32.92-14.4,38.01-14.03
	c15.15,1.08,25.66,8.82,29.82,12.28c3.35-5.23,11.01-15.34,23.97-19.3c20.28-6.19,45.47,5.16,60.22,29.24
	c3.99-3.56,14.07-11.48,25.73-9.94c22.06,2.92,39.71,38.39,26.31,57.89c-7.15,10.41-22.13,14.8-37.42,12.86
	c-1.41,16.67-15.28,29.58-31.57,29.82c-15.57,0.23-29.38-11.17-32.16-26.9c0.21,3.11,1.3,22.62-10.52,31.57
	c-13.85,10.49-43.05,4.7-61.98-22.22c-11.18,10.84-28.34,9.43-36.25,0c-8.34-9.95-5.97-28.34,8.19-36.84
	C14.71,79.21,13.86,61.29,22.39,49.09z"/>
<radialGradient id="SVGID_1_" cx="121.4159" cy="102.7028" r="69.473" gradientUnits="userSpaceOnUse">
	<stop  offset="0" style="stop-color:#FCEE21"/>
	<stop  offset="0.2429" style="stop-color:#FCEB21"/>
	<stop  offset="0.444" style="stop-color:#FBE021"/>
	<stop  offset="0.6302" style="stop-color:#FACF20"/>
	<stop  offset="0.8074" style="stop-color:#F9B71F"/>
	<stop  offset="0.9768" style="stop-color:#F7981E"/>
	<stop  offset="1" style="stop-color:#F7931E"/>
</radialGradient>
<circle fill="url(#SVGID_1_)" cx="121.42" cy="102.7" r="69.47"/>
<path fill="#CCCCCC" stroke="#999999" stroke-miterlimit="10" d="M21.3,103.15c9.95-14.24,29.39-12.86,33.94-12.53
	c13.53,0.96,22.91,7.88,26.63,10.96c2.99-4.67,9.83-13.7,21.41-17.23c18.11-5.52,40.6,4.6,53.78,26.11
	c3.57-3.18,12.56-10.25,22.97-8.88c19.69,2.61,35.46,34.28,23.5,51.69c-6.38,9.29-19.76,13.22-33.42,11.49
	c-1.26,14.89-13.65,26.41-28.19,26.63c-13.9,0.21-26.23-9.97-28.72-24.02c0.19,2.78,1.16,20.2-9.4,28.19
	c-12.37,9.37-38.44,4.2-55.35-19.84c-9.98,9.68-25.31,8.42-32.37,0c-7.45-8.89-5.33-25.31,7.31-32.89
	C14.45,130.04,13.69,114.04,21.3,103.15z"/>
<g>
	<polygon fill="#E6E6E6" points="48.23,205.3 43.4,207.86 43.03,213.32 38.02,211.14 33.53,214.26 32.1,208.98 26.86,207.41 
		30.1,203 28.07,197.93 33.53,197.72 36.23,192.96 39.8,197.1 45.2,196.24 44.19,201.61 	"/>
	<polygon fill="#E6E6E6" points="64.75,220.91 59.92,223.47 59.56,228.92 54.54,226.74 50.05,229.86 48.63,224.58 43.39,223.01 
		46.63,218.61 44.59,213.53 50.05,213.32 52.75,208.56 56.32,212.7 61.72,211.84 60.71,217.22 	"/>
	<polygon fill="#E6E6E6" points="147.69,213.77 142.86,216.33 142.49,221.79 137.48,219.61 132.98,222.72 131.56,217.44 
		126.32,215.88 129.56,211.47 127.52,206.4 132.99,206.18 135.68,201.43 139.26,205.57 144.66,204.71 143.65,210.08 	"/>
	<polygon fill="#E6E6E6" points="169.05,213.77 164.22,216.33 163.86,221.79 158.84,219.61 154.35,222.72 152.93,217.44 
		147.69,215.88 150.93,211.47 148.89,206.4 154.35,206.18 157.05,201.43 160.62,205.57 166.02,204.71 165.01,210.08 	"/>
	<polygon fill="#E6E6E6" points="247.15,208.16 251.98,210.72 252.34,216.17 257.36,214 261.85,217.11 263.27,211.83 268.51,210.26 
		265.27,205.86 267.31,200.78 261.85,200.57 259.15,195.81 255.58,199.95 250.18,199.1 251.19,204.47 	"/>
	<polygon fill="#E6E6E6" points="230.62,223.76 235.45,226.32 235.82,231.78 240.83,229.6 245.33,232.72 246.75,227.44 
		251.99,225.87 248.75,221.46 250.79,216.39 245.32,216.18 242.63,211.42 239.05,215.56 233.65,214.7 234.66,220.08 	"/>
</g>
<g>
	<polygon fill="#E6E6E6" points="48.23,231.91 43.4,234.47 43.03,239.93 38.02,237.75 33.53,240.86 32.1,235.58 26.86,234.02 
		30.1,229.61 28.07,224.54 33.53,224.32 36.23,219.57 39.8,223.71 45.2,222.85 44.19,228.22 	"/>
	<polygon fill="#E6E6E6" points="64.75,247.51 59.92,250.08 59.56,255.53 54.54,253.35 50.05,256.47 48.63,251.19 43.39,249.62 
		46.63,245.22 44.59,240.14 50.05,239.93 52.75,235.17 56.32,239.31 61.72,238.45 60.71,243.83 	"/>
	<polygon fill="#E6E6E6" points="147.69,240.38 142.86,242.94 142.49,248.4 137.48,246.22 132.98,249.33 131.56,244.05 
		126.32,242.48 129.56,238.08 127.52,233.01 132.99,232.79 135.68,228.04 139.26,232.18 144.66,231.32 143.65,236.69 	"/>
	<polygon fill="#E6E6E6" points="169.05,240.38 164.22,242.94 163.86,248.4 158.84,246.22 154.35,249.33 152.93,244.05 
		147.69,242.48 150.93,238.08 148.89,233.01 154.35,232.79 157.05,228.04 160.62,232.18 166.02,231.32 165.01,236.69 	"/>
	<polygon fill="#E6E6E6" points="247.15,234.76 251.98,237.33 252.34,242.78 257.36,240.6 261.85,243.72 263.27,238.44 
		268.51,236.87 265.27,232.47 267.31,227.39 261.85,227.18 259.15,222.42 255.58,226.56 250.18,225.7 251.19,231.08 	"/>
	<polygon fill="#E6E6E6" points="230.62,250.37 235.45,252.93 235.82,258.39 240.83,256.21 245.33,259.33 246.75,254.05 
		251.99,252.48 248.75,248.07 250.79,243 245.32,242.79 242.63,238.03 239.05,242.17 233.65,241.31 234.66,246.68 	"/>
</g>
<path fill="#CCCCCC" stroke="#999999" stroke-miterlimit="10" d="M121.35,99.94c9.17-13.12,27.09-11.85,31.27-11.55
	c12.47,0.89,21.11,7.26,24.54,10.1c2.76-4.31,9.06-12.62,19.73-15.88c16.69-5.09,37.41,4.24,49.56,24.06
	c3.29-2.93,11.58-9.45,21.17-8.18c18.15,2.4,32.67,31.59,21.65,47.63c-5.88,8.56-18.21,12.18-30.79,10.59
	c-1.16,13.72-12.58,24.34-25.98,24.54c-12.81,0.19-24.18-9.19-26.46-22.13c0.18,2.56,1.07,18.61-8.66,25.98
	c-11.4,8.63-35.42,3.87-51-18.28c-9.2,8.92-23.32,7.76-29.83,0c-6.87-8.19-4.91-23.32,6.74-30.31
	C115.04,124.72,114.34,109.98,121.35,99.94z"/>
</svg>
