<?xml version="1.0" encoding="utf-8"?>
<!-- Generator: Adobe Illustrator 26.5.0, SVG Export Plug-In . SVG Version: 6.00 Build 0)  -->
<svg version="1.1" id="icons" xmlns="http://www.w3.org/2000/svg" xmlns:xlink="http://www.w3.org/1999/xlink" x="0px" y="0px"
	 viewBox="0 0 300 300" enable-background="new 0 0 300 300" xml:space="preserve">
<path fill="#CCCCCC" stroke="#999999" stroke-miterlimit="10" d="M22.39,49.09c11.15-15.95,32.92-14.4,38.01-14.03
	c15.15,1.08,25.66,8.82,29.82,12.28c3.35-5.23,11.01-15.34,23.97-19.3c20.28-6.19,45.47,5.16,60.22,29.24
	c3.99-3.56,14.07-11.48,25.73-9.94c22.06,2.92,39.71,38.39,26.31,57.89c-7.15,10.41-22.13,14.8-37.42,12.86
	c-1.41,16.67-15.28,29.58-31.57,29.82c-15.57,0.23-29.38-11.17-32.16-26.9c0.21,3.11,1.3,22.62-10.52,31.57
	c-13.85,10.49-43.05,4.7-61.98-22.22c-11.18,10.84-28.34,9.43-36.25,0c-8.34-9.95-5.97-28.34,8.19-36.84
	C14.71,79.21,13.86,61.29,22.39,49.09z"/>
<g>
	<radialGradient id="SVGID_1_" cx="150" cy="-180.7784" r="115.4724" gradientUnits="userSpaceOnUse">
		<stop  offset="0" style="stop-color:#FCEE21"/>
		<stop  offset="0.2429" style="stop-color:#FCEB21"/>
		<stop  offset="0.444" style="stop-color:#FBE021"/>
		<stop  offset="0.6302" style="stop-color:#FACF20"/>
		<stop  offset="0.8074" style="stop-color:#F9B71F"/>
		<stop  offset="0.9768" style="stop-color:#F7981E"/>
		<stop  offset="1" style="stop-color:#F7931E"/>
	</radialGradient>
	<polygon fill="url(#SVGID_1_)" points="232.95,-100.58 157.38,-169.9 192.79,-73.65 151.94,-167.73 145.15,-65.39 146.1,-167.95 
		98.27,-77.23 140.85,-170.53 60.25,-107.1 137.1,-175.02 37.67,-149.86 135.5,-180.65 34.44,-198.1 136.33,-186.44 51.11,-243.49 
		139.45,-191.39 84.79,-278.18 144.31,-194.65 129.68,-296.16 150.07,-195.65 177.99,-294.34 155.75,-194.22 221.39,-273.02 
		160.35,-190.6 252.37,-235.89 163.08,-185.43 265.56,-189.37 163.47,-179.59 258.69,-141.51 161.45,-174.1 	"/>
	
		<radialGradient id="SVGID_00000157277154551979086460000008109253570019271045_" cx="150" cy="-180.7784" r="52.0038" gradientUnits="userSpaceOnUse">
		<stop  offset="0" style="stop-color:#FCEE21"/>
		<stop  offset="0.2429" style="stop-color:#FCEB21"/>
		<stop  offset="0.444" style="stop-color:#FBE021"/>
		<stop  offset="0.6302" style="stop-color:#FACF20"/>
		<stop  offset="0.8074" style="stop-color:#F9B71F"/>
		<stop  offset="0.9768" style="stop-color:#F7981E"/>
		<stop  offset="1" style="stop-color:#F7931E"/>
	</radialGradient>
	<circle fill="url(#SVGID_00000157277154551979086460000008109253570019271045_)" cx="150" cy="-180.78" r="52"/>
</g>
<radialGradient id="SVGID_00000107549461992343987430000016374325444162062768_" cx="119.1919" cy="105.6825" r="69.473" gradientUnits="userSpaceOnUse">
	<stop  offset="0" style="stop-color:#FCEE21"/>
	<stop  offset="0.2429" style="stop-color:#FCEB21"/>
	<stop  offset="0.444" style="stop-color:#FBE021"/>
	<stop  offset="0.6302" style="stop-color:#FACF20"/>
	<stop  offset="0.8074" style="stop-color:#F9B71F"/>
	<stop  offset="0.9768" style="stop-color:#F7981E"/>
	<stop  offset="1" style="stop-color:#F7931E"/>
</radialGradient>
<circle fill="url(#SVGID_00000107549461992343987430000016374325444162062768_)" cx="119.19" cy="105.68" r="69.47"/>
<g>
	
		<radialGradient id="SVGID_00000008131926908150500920000014949622572343085710_" cx="249.6375" cy="-249.5379" r="61.3265" gradientTransform="matrix(-0.1638 0.9865 -0.9865 -0.1638 292.4731 6.3154)" gradientUnits="userSpaceOnUse">
		<stop  offset="0" style="stop-color:#FFFFFF"/>
		<stop  offset="0.1164" style="stop-color:#F9F9F4"/>
		<stop  offset="1" style="stop-color:#CBCCA0"/>
	</radialGradient>
	<path fill="url(#SVGID_00000008131926908150500920000014949622572343085710_)" d="M488.76,351.66
		c-35.07-5.82-58.77-38.96-52.95-74.02c3.64-21.94,17.97-39.43,36.79-48.03c-8.26,8.44-14.12,19.4-16.2,31.93
		c-5.39,32.48,16.57,63.19,49.05,68.58c20.7,3.44,40.7-4.25,53.86-18.68C548.54,339.3,519.38,356.74,488.76,351.66z"/>
	
		<radialGradient id="SVGID_00000062893474676411846030000003976064008667210140_" cx="506.0334" cy="251.4216" r="11.7757" gradientUnits="userSpaceOnUse">
		<stop  offset="0" style="stop-color:#FFFFFF"/>
		<stop  offset="0.1164" style="stop-color:#F9F9F4"/>
		<stop  offset="1" style="stop-color:#CBCCA0"/>
	</radialGradient>
	<polygon fill="url(#SVGID_00000062893474676411846030000003976064008667210140_)" points="517.95,255.38 508.85,254.63 
		505.32,263.06 503.22,254.17 494.12,253.42 501.92,248.68 499.82,239.79 506.74,245.74 514.55,241 511.02,249.42 	"/>
	
		<radialGradient id="SVGID_00000175294305942683284740000018375495422225833892_" cx="416.522" cy="291.149" r="10.0634" gradientUnits="userSpaceOnUse">
		<stop  offset="0" style="stop-color:#FFFFFF"/>
		<stop  offset="0.1164" style="stop-color:#F9F9F4"/>
		<stop  offset="1" style="stop-color:#CBCCA0"/>
	</radialGradient>
	<polygon fill="url(#SVGID_00000175294305942683284740000018375495422225833892_)" points="426.7,294.53 418.93,293.89 
		415.91,301.09 414.12,293.5 406.34,292.86 413.01,288.8 411.21,281.21 417.13,286.3 423.8,282.24 420.79,289.44 	"/>
	
		<radialGradient id="SVGID_00000108275370226689592270000009455548061728584358_" cx="497.1205" cy="309.1456" r="8.8084" gradientUnits="userSpaceOnUse">
		<stop  offset="0" style="stop-color:#FFFFFF"/>
		<stop  offset="0.1164" style="stop-color:#F9F9F4"/>
		<stop  offset="1" style="stop-color:#CBCCA0"/>
	</radialGradient>
	<polygon fill="url(#SVGID_00000108275370226689592270000009455548061728584358_)" points="506.03,312.1 499.22,311.55 
		496.59,317.85 495.02,311.2 488.21,310.64 494.04,307.09 492.47,300.44 497.65,304.9 503.49,301.35 500.85,307.65 	"/>
</g>
<path fill="#CCCCCC" stroke="#999999" stroke-miterlimit="10" d="M21.3,103.15c9.95-14.24,29.39-12.86,33.94-12.53
	c13.53,0.96,22.91,7.88,26.63,10.96c2.99-4.67,9.83-13.7,21.41-17.23c18.11-5.52,40.6,4.6,53.78,26.11
	c3.57-3.18,12.56-10.25,22.97-8.88c19.69,2.61,35.46,34.28,23.5,51.69c-6.38,9.29-19.76,13.22-33.42,11.49
	c-1.26,14.89-13.65,26.41-28.19,26.63c-13.9,0.21-26.23-9.97-28.72-24.02c0.19,2.78,1.16,20.2-9.4,28.19
	c-12.37,9.37-38.44,4.2-55.35-19.84c-9.98,9.68-25.31,8.42-32.37,0c-7.45-8.89-5.33-25.31,7.31-32.89
	C14.45,130.04,13.69,114.04,21.3,103.15z"/>
<path fill="#CCCCCC" stroke="#999999" stroke-miterlimit="10" d="M121.35,99.94c9.17-13.12,27.09-11.85,31.27-11.55
	c12.47,0.89,21.11,7.26,24.54,10.1c2.76-4.31,9.06-12.62,19.73-15.88c16.69-5.09,37.41,4.24,49.56,24.06
	c3.29-2.93,11.58-9.45,21.17-8.18c18.15,2.4,32.67,31.59,21.65,47.63c-5.88,8.56-18.21,12.18-30.79,10.59
	c-1.16,13.72-12.58,24.34-25.98,24.54c-12.81,0.19-24.18-9.19-26.46-22.13c0.18,2.56,1.07,18.61-8.66,25.98
	c-11.4,8.63-35.42,3.87-51-18.28c-9.2,8.92-23.32,7.76-29.83,0c-6.87-8.19-4.91-23.32,6.74-30.31
	C115.04,124.72,114.34,109.98,121.35,99.94z"/>
<g>
	<path fill="none" stroke="#999999" stroke-width="5" stroke-miterlimit="10" d="M368.73,121.1c3.01-1.98,22.68-14.43,44.91-7.13
		c8.32,2.73,10.6,7.96,19.25,12.12c20.68,9.96,42.4,1.13,43.49,0.71c15.81-6.11,15.92-15,27.09-15.68
		c13.94-0.85,16.34,12.85,32.08,14.97c19.48,2.63,26.76-16.88,44.91-13.54c14.57,2.68,16.99,16.55,29.94,17.11
		c11.25,0.48,20.84-9.5,27.09-17.82"/>
	<path fill="none" stroke="#999999" stroke-width="5" stroke-miterlimit="10" d="M371.99,165.45c3.01-1.98,22.68-14.43,44.91-7.13
		c8.32,2.73,10.6,7.96,19.25,12.12c20.68,9.96,42.4,1.13,43.49,0.71c15.81-6.11,15.92-15,27.09-15.68
		c13.94-0.85,16.34,12.85,32.08,14.97c19.48,2.63,26.76-16.88,44.91-13.54c14.57,2.68,16.99,16.55,29.94,17.11
		c11.25,0.48,20.84-9.5,27.09-17.82"/>
	<path fill="none" stroke="#999999" stroke-width="5" stroke-miterlimit="10" d="M487.43,142.67c-1.33-0.87-9.98-6.35-19.76-3.14
		c-3.66,1.2-4.66,3.5-8.47,5.33c-9.1,4.38-18.65,0.5-19.13,0.31c-6.95-2.69-7-6.6-11.92-6.9c-6.13-0.37-7.19,5.65-14.11,6.59
		c-8.57,1.16-11.77-7.43-19.76-5.96c-6.41,1.18-7.48,7.28-13.17,7.53c-4.95,0.21-9.17-4.18-11.92-7.84"/>
	<path fill="none" stroke="#999999" stroke-width="5" stroke-miterlimit="10" d="M500.2,142.67c1.33-0.87,9.98-6.35,19.76-3.14
		c3.66,1.2,4.66,3.5,8.47,5.33c9.1,4.38,18.65,0.5,19.13,0.31c6.95-2.69,7-6.6,11.92-6.9c6.13-0.37,7.19,5.65,14.11,6.59
		c8.57,1.16,11.77-7.43,19.76-5.96c6.41,1.18,7.48,7.28,13.17,7.53c4.95,0.21,9.17-4.18,11.92-7.84"/>
</g>
<g>
	<ellipse fill="none" stroke="#0071BC" stroke-width="2" stroke-miterlimit="10" cx="-258.44" cy="82.29" rx="0.41" ry="20.64"/>
	<ellipse fill="none" stroke="#0071BC" stroke-width="2" stroke-miterlimit="10" cx="-253.33" cy="102.94" rx="0.41" ry="20.64"/>
	<ellipse fill="none" stroke="#0071BC" stroke-width="2" stroke-miterlimit="10" cx="-64.15" cy="80.94" rx="0.41" ry="20.64"/>
	<ellipse fill="none" stroke="#0071BC" stroke-width="2" stroke-miterlimit="10" cx="-69.26" cy="101.58" rx="0.41" ry="20.64"/>
	<ellipse fill="none" stroke="#0071BC" stroke-width="2" stroke-miterlimit="10" cx="-156.19" cy="94.82" rx="0.41" ry="20.64"/>
	<ellipse fill="none" stroke="#0071BC" stroke-width="2" stroke-miterlimit="10" cx="-161.3" cy="94.82" rx="0.41" ry="20.64"/>
</g>
<ellipse fill="none" stroke="#0071BC" stroke-width="2" stroke-miterlimit="10" cx="50.13" cy="206.45" rx="0.41" ry="20.64"/>
<ellipse fill="none" stroke="#0071BC" stroke-width="2" stroke-miterlimit="10" cx="55.24" cy="227.1" rx="0.41" ry="20.64"/>
<ellipse fill="none" stroke="#0071BC" stroke-width="2" stroke-miterlimit="10" cx="252.85" cy="203.93" rx="0.41" ry="20.64"/>
<ellipse fill="none" stroke="#0071BC" stroke-width="2" stroke-miterlimit="10" cx="247.74" cy="224.57" rx="0.41" ry="20.64"/>
<ellipse fill="none" stroke="#0071BC" stroke-width="2" stroke-miterlimit="10" cx="152.39" cy="218.98" rx="0.41" ry="20.64"/>
<ellipse fill="none" stroke="#0071BC" stroke-width="2" stroke-miterlimit="10" cx="147.28" cy="218.98" rx="0.41" ry="20.64"/>
<polygon fill="#E6E6E6" points="51.38,217.79 46.55,220.36 46.18,225.81 41.17,223.63 36.68,226.75 35.25,221.47 30.01,219.9 
	33.25,215.5 31.22,210.42 36.68,210.21 39.38,205.45 42.95,209.59 48.35,208.73 47.34,214.11 "/>
<polygon fill="#E6E6E6" points="67.9,233.4 63.07,235.96 62.71,241.42 57.69,239.24 53.2,242.35 51.78,237.07 46.54,235.51 
	49.78,231.1 47.74,226.03 53.2,225.81 55.9,221.06 59.47,225.2 64.87,224.34 63.86,229.71 "/>
<polygon fill="#E6E6E6" points="150.84,226.26 146.01,228.82 145.64,234.28 140.63,232.1 136.13,235.22 134.71,229.94 
	129.47,228.37 132.71,223.96 130.67,218.89 136.14,218.68 138.83,213.92 142.41,218.06 147.81,217.2 146.8,222.58 "/>
<polygon fill="#E6E6E6" points="172.2,226.26 167.37,228.82 167.01,234.28 161.99,232.1 157.5,235.22 156.08,229.94 150.84,228.37 
	154.08,223.96 152.04,218.89 157.5,218.68 160.2,213.92 163.77,218.06 169.17,217.2 168.16,222.58 "/>
<polygon fill="#E6E6E6" points="250.3,220.65 255.13,223.21 255.49,228.67 260.51,226.49 265,229.61 266.42,224.33 271.66,222.76 
	268.42,218.35 270.46,213.28 265,213.07 262.3,208.31 258.73,212.45 253.33,211.59 254.34,216.96 "/>
<polygon fill="#E6E6E6" points="233.77,236.26 238.6,238.82 238.97,244.27 243.98,242.09 248.48,245.21 249.9,239.93 255.14,238.36 
	251.9,233.96 253.94,228.88 248.47,228.67 245.78,223.91 242.2,228.05 236.8,227.19 237.81,232.57 "/>
</svg>
