<?xml version="1.0" encoding="utf-8"?>
<!-- Generator: Adobe Illustrator 26.5.0, SVG Export Plug-In . SVG Version: 6.00 Build 0)  -->
<svg version="1.1" id="icons" xmlns="http://www.w3.org/2000/svg" xmlns:xlink="http://www.w3.org/1999/xlink" x="0px" y="0px"
	 viewBox="0 0 300 300" enable-background="new 0 0 300 300" xml:space="preserve">
<path fill="#CCCCCC" stroke="#999999" stroke-miterlimit="10" d="M22.39,49.09c11.15-15.95,32.92-14.4,38.01-14.03
	c15.15,1.08,25.66,8.82,29.82,12.28c3.35-5.23,11.01-15.34,23.97-19.3c20.28-6.19,45.47,5.16,60.22,29.24
	c3.99-3.56,14.07-11.48,25.73-9.94c22.06,2.92,39.71,38.39,26.31,57.89c-7.15,10.41-22.13,14.8-37.42,12.86
	c-1.41,16.67-15.28,29.58-31.57,29.82c-15.57,0.23-29.38-11.17-32.16-26.9c0.21,3.11,1.3,22.62-10.52,31.57
	c-13.85,10.49-43.05,4.7-61.98-22.22c-11.18,10.84-28.34,9.43-36.25,0c-8.34-9.95-5.97-28.34,8.19-36.84
	C14.71,79.21,13.86,61.29,22.39,49.09z"/>
<g>
	
		<radialGradient id="SVGID_1_" cx="113.857" cy="148.3238" r="61.3265" gradientTransform="matrix(-0.1638 0.9865 -0.9865 -0.1638 292.4731 6.3154)" gradientUnits="userSpaceOnUse">
		<stop  offset="0" style="stop-color:#FFFFFF"/>
		<stop  offset="0.1164" style="stop-color:#F9F9F4"/>
		<stop  offset="1" style="stop-color:#CBCCA0"/>
	</radialGradient>
	<path fill="url(#SVGID_1_)" d="M118.52,152.52c-35.07-5.82-58.77-38.96-52.95-74.02c3.64-21.94,17.97-39.43,36.79-48.03
		c-8.26,8.44-14.12,19.4-16.2,31.93c-5.39,32.48,16.57,63.19,49.05,68.58c20.7,3.44,40.7-4.25,53.86-18.68
		C178.3,140.17,149.14,157.61,118.52,152.52z"/>
	
		<radialGradient id="SVGID_00000113344385790979908290000014842291522890088342_" cx="135.7941" cy="52.2907" r="11.7757" gradientUnits="userSpaceOnUse">
		<stop  offset="0" style="stop-color:#FFFFFF"/>
		<stop  offset="0.1164" style="stop-color:#F9F9F4"/>
		<stop  offset="1" style="stop-color:#CBCCA0"/>
	</radialGradient>
	<polygon fill="url(#SVGID_00000113344385790979908290000014842291522890088342_)" points="147.71,56.25 138.61,55.5 135.08,63.93 
		132.98,55.04 123.88,54.29 131.68,49.54 129.58,40.66 136.5,46.61 144.31,41.87 140.78,50.29 	"/>
	
		<radialGradient id="SVGID_00000103955190934846402410000014021666360198420370_" cx="46.2828" cy="92.018" r="10.0634" gradientUnits="userSpaceOnUse">
		<stop  offset="0" style="stop-color:#FFFFFF"/>
		<stop  offset="0.1164" style="stop-color:#F9F9F4"/>
		<stop  offset="1" style="stop-color:#CBCCA0"/>
	</radialGradient>
	<polygon fill="url(#SVGID_00000103955190934846402410000014021666360198420370_)" points="56.47,95.4 48.69,94.76 45.68,101.96 
		43.88,94.37 36.1,93.73 42.77,89.67 40.97,82.08 46.89,87.16 53.56,83.11 50.55,90.31 	"/>
	
		<radialGradient id="SVGID_00000088820036725862383520000006726461608136604546_" cx="126.8813" cy="110.0147" r="8.8084" gradientUnits="userSpaceOnUse">
		<stop  offset="0" style="stop-color:#FFFFFF"/>
		<stop  offset="0.1164" style="stop-color:#F9F9F4"/>
		<stop  offset="1" style="stop-color:#CBCCA0"/>
	</radialGradient>
	<polygon fill="url(#SVGID_00000088820036725862383520000006726461608136604546_)" points="135.79,112.97 128.99,112.41 
		126.35,118.72 124.78,112.07 117.97,111.51 123.81,107.96 122.23,101.31 127.41,105.77 133.25,102.22 130.61,108.52 	"/>
</g>
<path fill="#CCCCCC" stroke="#999999" stroke-miterlimit="10" d="M21.3,103.15c9.95-14.24,29.39-12.86,33.94-12.53
	c13.53,0.96,22.91,7.88,26.63,10.96c2.99-4.67,9.83-13.7,21.41-17.23c18.11-5.52,40.6,4.6,53.78,26.11
	c3.57-3.18,12.56-10.25,22.97-8.88c19.69,2.61,35.46,34.28,23.5,51.69c-6.38,9.29-19.76,13.22-33.42,11.49
	c-1.26,14.89-13.65,26.41-28.19,26.63c-13.9,0.21-26.23-9.97-28.72-24.02c0.19,2.78,1.16,20.2-9.4,28.19
	c-12.37,9.37-38.44,4.2-55.35-19.84c-9.98,9.68-25.31,8.42-32.37,0c-7.45-8.89-5.33-25.31,7.31-32.89
	C14.45,130.04,13.69,114.04,21.3,103.15z"/>
<path fill="#CCCCCC" stroke="#999999" stroke-miterlimit="10" d="M121.35,99.94c9.17-13.12,27.09-11.85,31.27-11.55
	c12.47,0.89,21.11,7.26,24.54,10.1c2.76-4.31,9.06-12.62,19.73-15.88c16.69-5.09,37.41,4.24,49.56,24.06
	c3.29-2.93,11.58-9.45,21.17-8.18c18.15,2.4,32.67,31.59,21.65,47.63c-5.88,8.56-18.21,12.18-30.79,10.59
	c-1.16,13.72-12.58,24.34-25.98,24.54c-12.81,0.19-24.18-9.19-26.46-22.13c0.18,2.56,1.07,18.61-8.66,25.98
	c-11.4,8.63-35.42,3.87-51-18.28c-9.2,8.92-23.32,7.76-29.83,0c-6.87-8.19-4.91-23.32,6.74-30.31
	C115.04,124.72,114.34,109.98,121.35,99.94z"/>
<polygon fill="#E6E6E6" points="51.38,217.79 46.55,220.36 46.18,225.81 41.17,223.63 36.68,226.75 35.25,221.47 30.01,219.9 
	33.25,215.5 31.22,210.42 36.68,210.21 39.38,205.45 42.95,209.59 48.35,208.73 47.34,214.11 "/>
<polygon fill="#E6E6E6" points="67.9,233.4 63.07,235.96 62.71,241.42 57.69,239.24 53.2,242.35 51.78,237.07 46.54,235.51 
	49.78,231.1 47.74,226.03 53.2,225.81 55.9,221.06 59.47,225.2 64.87,224.34 63.86,229.71 "/>
<polygon fill="#E6E6E6" points="142.58,228.44 137.74,231 137.38,236.46 132.37,234.28 127.87,237.4 126.45,232.12 121.21,230.55 
	124.45,226.14 122.41,221.07 127.88,220.86 130.57,216.1 134.15,220.24 139.55,219.38 138.54,224.76 "/>
<polygon fill="#E6E6E6" points="163.94,228.44 159.11,231 158.75,236.46 153.73,234.28 149.24,237.4 147.81,232.12 142.58,230.55 
	145.82,226.14 143.78,221.07 149.24,220.86 151.94,216.1 155.51,220.24 160.91,219.38 159.9,224.76 "/>
<polygon fill="#E6E6E6" points="250.3,220.65 255.13,223.21 255.49,228.67 260.51,226.49 265,229.61 266.42,224.33 271.66,222.76 
	268.42,218.35 270.46,213.28 265,213.07 262.3,208.31 258.73,212.45 253.33,211.59 254.34,216.96 "/>
<polygon fill="#E6E6E6" points="233.77,236.26 238.6,238.82 238.97,244.27 243.98,242.09 248.48,245.21 249.9,239.93 255.14,238.36 
	251.9,233.96 253.94,228.88 248.47,228.67 245.78,223.91 242.2,228.05 236.8,227.19 237.81,232.57 "/>
</svg>
