<?xml version="1.0" encoding="utf-8"?>
<!-- Generator: Adobe Illustrator 26.5.0, SVG Export Plug-In . SVG Version: 6.00 Build 0)  -->
<svg version="1.1" id="icons" xmlns="http://www.w3.org/2000/svg" xmlns:xlink="http://www.w3.org/1999/xlink" x="0px" y="0px"
	 viewBox="0 0 300 300" enable-background="new 0 0 300 300" xml:space="preserve">
<path fill="#CCCCCC" stroke="#999999" stroke-miterlimit="10" d="M22.39,49.09c11.15-15.95,32.92-14.4,38.01-14.03
	c15.15,1.08,25.66,8.82,29.82,12.28c3.35-5.23,11.01-15.34,23.97-19.3c20.28-6.19,45.47,5.16,60.22,29.24
	c3.99-3.56,14.07-11.48,25.73-9.94c22.06,2.92,39.71,38.39,26.31,57.89c-7.15,10.41-22.13,14.8-37.42,12.86
	c-1.41,16.67-15.28,29.58-31.57,29.82c-15.57,0.23-29.38-11.17-32.16-26.9c0.21,3.11,1.3,22.62-10.52,31.57
	c-13.85,10.49-43.05,4.7-61.98-22.22c-11.18,10.84-28.34,9.43-36.25,0c-8.34-9.95-5.97-28.34,8.19-36.84
	C14.71,79.21,13.86,61.29,22.39,49.09z"/>
<g>
	
		<radialGradient id="SVGID_1_" cx="109.3171" cy="136.5923" r="61.3265" gradientTransform="matrix(-0.1638 0.9865 -0.9865 -0.1638 292.4731 6.3154)" gradientUnits="userSpaceOnUse">
		<stop  offset="0" style="stop-color:#FFFFFF"/>
		<stop  offset="0.1164" style="stop-color:#F9F9F4"/>
		<stop  offset="1" style="stop-color:#CBCCA0"/>
	</radialGradient>
	<path fill="url(#SVGID_1_)" d="M130.84,149.97c-35.07-5.82-58.77-38.96-52.95-74.02c3.64-21.94,17.97-39.43,36.79-48.03
		c-8.26,8.44-14.12,19.4-16.2,31.93c-5.39,32.48,16.57,63.19,49.05,68.58c20.7,3.44,40.7-4.25,53.86-18.68
		C190.62,137.61,161.46,155.05,130.84,149.97z"/>
	
		<radialGradient id="SVGID_00000038403136549372154290000017890896056855177354_" cx="148.1109" cy="49.7342" r="11.7757" gradientUnits="userSpaceOnUse">
		<stop  offset="0" style="stop-color:#FFFFFF"/>
		<stop  offset="0.1164" style="stop-color:#F9F9F4"/>
		<stop  offset="1" style="stop-color:#CBCCA0"/>
	</radialGradient>
	<polygon fill="url(#SVGID_00000038403136549372154290000017890896056855177354_)" points="160.03,53.69 150.92,52.94 147.4,61.37 
		145.3,52.48 136.2,51.73 144,46.99 141.9,38.1 148.82,44.05 156.62,39.31 153.1,47.74 	"/>
	
		<radialGradient id="SVGID_00000127002790529691023140000001326519755046799287_" cx="58.5995" cy="89.4615" r="10.0634" gradientUnits="userSpaceOnUse">
		<stop  offset="0" style="stop-color:#FFFFFF"/>
		<stop  offset="0.1164" style="stop-color:#F9F9F4"/>
		<stop  offset="1" style="stop-color:#CBCCA0"/>
	</radialGradient>
	<polygon fill="url(#SVGID_00000127002790529691023140000001326519755046799287_)" points="68.78,92.84 61,92.2 57.99,99.4 
		56.2,91.81 48.42,91.17 55.09,87.11 53.29,79.52 59.21,84.61 65.88,80.55 62.86,87.75 	"/>
	
		<radialGradient id="SVGID_00000124130306146427256200000013271527466398533513_" cx="139.198" cy="107.4581" r="8.8084" gradientUnits="userSpaceOnUse">
		<stop  offset="0" style="stop-color:#FFFFFF"/>
		<stop  offset="0.1164" style="stop-color:#F9F9F4"/>
		<stop  offset="1" style="stop-color:#CBCCA0"/>
	</radialGradient>
	<polygon fill="url(#SVGID_00000124130306146427256200000013271527466398533513_)" points="148.11,110.42 141.3,109.86 
		138.67,116.16 137.09,109.51 130.29,108.95 136.12,105.4 134.55,98.76 139.73,103.21 145.57,99.66 142.93,105.96 	"/>
</g>
<path fill="#CCCCCC" stroke="#999999" stroke-miterlimit="10" d="M21.3,103.15c9.95-14.24,29.39-12.86,33.94-12.53
	c13.53,0.96,22.91,7.88,26.63,10.96c2.99-4.67,9.83-13.7,21.41-17.23c18.11-5.52,40.6,4.6,53.78,26.11
	c3.57-3.18,12.56-10.25,22.97-8.88c19.69,2.61,35.46,34.28,23.5,51.69c-6.38,9.29-19.76,13.22-33.42,11.49
	c-1.26,14.89-13.65,26.41-28.19,26.63c-13.9,0.21-26.23-9.97-28.72-24.02c0.19,2.78,1.16,20.2-9.4,28.19
	c-12.37,9.37-38.44,4.2-55.35-19.84c-9.98,9.68-25.31,8.42-32.37,0c-7.45-8.89-5.33-25.31,7.31-32.89
	C14.45,130.04,13.69,114.04,21.3,103.15z"/>
<g>
	<polygon fill="#E6E6E6" points="46.81,209.71 41.98,212.27 41.61,217.72 36.6,215.55 32.1,218.66 30.68,213.38 25.44,211.81 
		28.68,207.41 26.64,202.33 32.11,202.12 34.8,197.36 38.38,201.5 43.78,200.64 42.77,206.02 	"/>
	<polygon fill="#E6E6E6" points="63.33,225.31 58.5,227.87 58.14,233.33 53.12,231.15 48.63,234.27 47.2,228.99 41.97,227.42 
		45.21,223.01 43.17,217.94 48.63,217.73 51.33,212.97 54.9,217.11 60.3,216.25 59.29,221.63 	"/>
	<polygon fill="#E6E6E6" points="146.27,218.18 141.43,220.74 141.07,226.19 136.06,224.01 131.56,227.13 130.14,221.85 
		124.9,220.28 128.14,215.88 126.1,210.8 131.57,210.59 134.26,205.83 137.84,209.97 143.24,209.11 142.23,214.49 	"/>
	<polygon fill="#E6E6E6" points="167.63,218.18 162.8,220.74 162.44,226.19 157.42,224.01 152.93,227.13 151.5,221.85 
		146.27,220.28 149.51,215.88 147.47,210.8 152.93,210.59 155.63,205.83 159.2,209.97 164.6,209.11 163.59,214.49 	"/>
	<polygon fill="#E6E6E6" points="245.72,212.56 250.56,215.13 250.92,220.58 255.94,218.4 260.43,221.52 261.85,216.24 
		267.09,214.67 263.85,210.27 265.89,205.19 260.42,204.98 257.73,200.22 254.16,204.36 248.75,203.5 249.76,208.88 	"/>
	<polygon fill="#E6E6E6" points="229.2,228.17 234.03,230.73 234.4,236.19 239.41,234.01 243.9,237.12 245.33,231.85 250.56,230.28 
		247.32,225.87 249.36,220.8 243.9,220.58 241.2,215.83 237.63,219.97 232.23,219.11 233.24,224.48 	"/>
</g>
<g>
	<polygon fill="#FFFF00" stroke="#FFFF00" stroke-miterlimit="10" points="153.72,170.68 137.8,198.04 143.7,194.97 158.18,187.43 
		134.73,225.96 159.3,214.51 130.27,259.18 180.52,202.17 151.2,211.02 175.25,173.83 155.95,182.97 174.37,151.14 	"/>
	<polygon fill="#F4B321" stroke="#FFFF00" stroke-miterlimit="10" points="154.54,171.33 146.3,191.29 159.28,186.69 152.03,200.09 
		139.88,221.3 160.98,216.2 139.88,247.83 166.12,212.79 146.52,215.94 166.12,181.25 154.68,183.76 166.96,159.89 	"/>
</g>
<path fill="#CCCCCC" stroke="#999999" stroke-miterlimit="10" d="M121.35,99.94c9.17-13.12,27.09-11.85,31.27-11.55
	c12.47,0.89,21.11,7.26,24.54,10.1c2.76-4.31,9.06-12.62,19.73-15.88c16.69-5.09,37.41,4.24,49.56,24.06
	c3.29-2.93,11.58-9.45,21.17-8.18c18.15,2.4,32.67,31.59,21.65,47.63c-5.88,8.56-18.21,12.18-30.79,10.59
	c-1.16,13.72-12.58,24.34-25.98,24.54c-12.81,0.19-24.18-9.19-26.46-22.13c0.18,2.56,1.07,18.61-8.66,25.98
	c-11.4,8.63-35.42,3.87-51-18.28c-9.2,8.92-23.32,7.76-29.83,0c-6.87-8.19-4.91-23.32,6.74-30.31
	C115.04,124.72,114.34,109.98,121.35,99.94z"/>
</svg>
